<?xml version="1.0" standalone="no"?>
<!DOCTYPE svg PUBLIC "-//W3C//DTD SVG 20010904//EN"
 "http://www.w3.org/TR/2001/REC-SVG-20010904/DTD/svg10.dtd">
<svg version="1.0" xmlns="http://www.w3.org/2000/svg"
 width="520.000000pt" height="520.000000pt" viewBox="0 0 520.000000 520.000000"
 preserveAspectRatio="xMidYMid meet">
<metadata>
Created by potrace 1.14, written by Peter Selinger 2001-2017
</metadata>
<g transform="translate(0.000000,520.000000) scale(0.100000,-0.100000)"
fill="#000000" stroke="none">
<path d="M480 2600 l0 -2480 2130 0 2130 0 0 230 0 230 -1880 0 -1880 0 0
2250 0 2250 -250 0 -250 0 0 -2480z"/>
<path d="M1600 4850 l0 -230 1570 0 1570 0 0 230 0 230 -1570 0 -1570 0 0
-230z"/>
<path d="M1600 3030 l0 -230 1320 0 1320 0 0 -730 0 -730 -1320 0 -1320 0 0
-230 0 -230 1570 0 1570 0 0 1190 0 1190 -1570 0 -1570 0 0 -230z"/>
</g>
</svg>
