<?xml version="1.0" encoding="UTF-8"?>
<svg xmlns="http://www.w3.org/2000/svg" xmlns:xlink="http://www.w3.org/1999/xlink" version="1.2" >
<font id="Futura Std Heavy Oblique">
<font-face  font-family="Futura Std" units-per-em="1000" ascent="825" descent="-175" font-style="italic" font-weight="650" font-stretch="normal" slope="-9" cap-height="754" x-height="470" underline-position="-75" underline-thickness="50" />
<missing-glyph  horiz-adv-x="611" d="M111 0 L611 0 L611 700 L111 700 L111 0 Z M361 395 L191 650 L531 650 L361 395 Z M391 350 L561 605 L561 95 L391 350 Z M191 50 L361 305 L531 50 L191 50 Z M161 605 L331 350 L161 95 L161 605 Z " />
<glyph glyph-name="NULL" d="" />
<glyph glyph-name="CR" unicode="&#xd;" horiz-adv-x="250" d="" />
<glyph glyph-name="space" unicode="&#x20;" horiz-adv-x="289" d="" />
<glyph glyph-name="exclam" unicode="&#x21;" horiz-adv-x="325" d="M187 158 C138 158 92 119 84 70 C76 21 110 -20 159 -20 C208 -20 254 21 262 70 C270 119 236 158 187 158 L187 158 Z M125 217 L267 217 L352 754 L210 754 L125 217 Z " />
<glyph glyph-name="quotedbl" unicode="&#x22;" horiz-adv-x="488" d="M207 754 L173 426 L257 426 L327 754 L207 754 Z M399 754 L365 426 L449 426 L519 754 L399 754 Z " />
<glyph glyph-name="numbersign" unicode="&#x23;" horiz-adv-x="578" d="M326 726 L255 523 L138 523 L120 410 L216 410 L172 286 L59 286 L41 173 L132 173 L72 0 L178 0 L238 173 L339 173 L279 0 L385 0 L445 173 L563 173 L581 286 L487 286 L531 410 L629 410 L647 523 L567 523 L638 726 L533 726 L462 523 L361 523 L432 726 L326 726 Z M322 410 L426 410 L380 286 L278 286 L322 410 Z " />
<glyph glyph-name="dollar" unicode="&#x24;" horiz-adv-x="578" d="M252 -100 L325 -100 L341 0 C460 23 542 121 560 235 C579 354 516 403 449 438 C384 473 315 494 325 555 C332 601 378 634 422 634 C467 634 502 608 524 573 L606 668 C571 721 526 746 460 754 L475 848 L402 848 L388 755 C276 735 199 653 182 542 C164 427 228 383 293 349 C359 315 426 293 415 223 C406 167 360 122 302 122 C235 122 199 174 179 229 L77 143 C112 51 164 7 267 -5 L252 -100 Z " />
<glyph glyph-name="percent" unicode="&#x25;" horiz-adv-x="772" d="M307 774 C205 774 116 699 99 595 C83 492 147 417 250 417 C353 417 441 492 457 595 C474 699 409 774 307 774 L307 774 Z M294 693 C344 693 366 641 358 595 C351 549 313 498 263 498 C213 498 191 549 198 595 C206 641 244 693 294 693 L294 693 Z M640 337 C538 337 449 262 433 158 C417 55 481 -20 584 -20 C687 -20 775 55 791 158 C807 262 742 337 640 337 L640 337 Z M628 256 C678 256 699 204 692 158 C685 112 647 61 597 61 C547 61 525 112 532 158 C539 204 578 256 628 256 L628 256 Z M677 780 L149 4 L212 -31 L739 746 L677 780 Z " />
<glyph glyph-name="ampersand" unicode="&#x26;" horiz-adv-x="702" d="M411 177 C375 147 335 112 289 112 C239 112 207 165 215 213 C223 268 274 304 319 334 L411 177 Z M369 543 C360 560 357 579 360 599 C366 635 393 669 433 669 C472 669 486 630 480 595 C475 559 455 535 425 513 L397 492 L369 543 Z M531 0 L710 0 L607 172 L706 281 L626 368 L535 271 L451 406 C522 448 591 505 604 588 C622 701 550 774 441 774 C333 774 237 699 219 587 C209 526 227 476 255 427 L205 396 C129 350 78 284 65 200 C45 73 124 -20 251 -20 C336 -20 411 22 482 76 L531 0 Z " />
<glyph glyph-name="quotesingle" unicode="&#x27;" horiz-adv-x="296" d="M207 754 L173 426 L257 426 L327 754 L207 754 Z " />
<glyph glyph-name="parenleft" unicode="&#x28;" horiz-adv-x="271" d="M307 832 C212 686 152 492 126 330 C100 165 94 -36 146 -184 L241 -125 C202 6 208 181 230 324 C254 472 302 638 384 774 L307 832 Z " />
<glyph glyph-name="parenright" unicode="&#x29;" horiz-adv-x="271" d="M133 774 C171 638 167 472 143 324 C121 181 71 6 -10 -125 L67 -184 C165 -36 223 165 249 330 C275 492 277 686 228 832 L133 774 Z " />
<glyph glyph-name="asterisk" unicode="&#x2a;" horiz-adv-x="417" d="M285 754 L272 653 L201 705 L155 638 L227 588 L140 538 L166 471 L252 523 L233 424 L319 424 L333 523 L402 471 L448 538 L375 588 L464 638 L439 705 L353 653 L371 754 L285 754 Z " />
<glyph glyph-name="plus" unicode="&#x2b;" horiz-adv-x="578" d="M311 512 L280 315 L83 315 L64 197 L261 197 L230 0 L348 0 L379 197 L576 197 L595 315 L398 315 L429 512 L311 512 Z " />
<glyph glyph-name="comma" unicode="&#x2c;" horiz-adv-x="289" d="M160 156 L3 -148 L94 -159 L285 142 L160 156 Z " />
<glyph glyph-name="hyphen" unicode="&#x2d;" horiz-adv-x="330" d="M103 378 L85 263 L329 263 L347 378 L103 378 Z " />
<glyph glyph-name="period" unicode="&#x2e;" horiz-adv-x="289" d="M170 158 C121 158 75 119 67 70 C59 21 93 -20 142 -20 C191 -20 237 21 245 70 C253 119 219 158 170 158 L170 158 Z " />
<glyph glyph-name="slash" unicode="&#x2f;" horiz-adv-x="539" d="M539 848 L17 -127 L108 -162 L631 813 L539 848 Z " />
<glyph glyph-name="zero" unicode="0" horiz-adv-x="578" d="M412 774 C210 774 104 538 79 376 C53 215 86 -20 286 -20 C486 -20 593 215 619 376 C644 538 614 774 412 774 L412 774 Z M391 646 C496 646 487 454 475 378 C463 303 411 108 306 108 C202 108 211 303 223 378 C235 454 287 646 391 646 L391 646 Z " />
<glyph glyph-name="one" unicode="1" horiz-adv-x="578" d="M343 626 L244 0 L391 0 L510 754 L264 754 L244 626 L343 626 Z " />
<glyph glyph-name="two" unicode="2" horiz-adv-x="578" d="M309 128 L441 257 C522 337 598 420 615 531 C637 669 547 774 409 774 C254 774 153 662 120 517 L276 517 C282 574 323 646 389 646 C451 646 476 578 467 524 C454 439 322 308 258 242 L28 0 L536 0 L556 128 L309 128 Z " />
<glyph glyph-name="three" unicode="3" horiz-adv-x="578" d="M287 557 C297 603 332 652 384 652 C439 652 463 606 455 556 C445 493 406 452 343 452 L327 452 L310 347 L337 349 C404 354 434 289 424 229 C415 170 370 108 304 108 C239 108 207 158 214 218 L66 218 C52 83 140 -20 278 -20 C422 -20 543 72 567 220 C578 289 563 374 499 404 C555 438 587 503 596 561 C616 691 543 774 413 774 C278 774 181 687 147 557 L287 557 Z " />
<glyph glyph-name="four" unicode="4" horiz-adv-x="578" d="M513 251 L595 768 L461 768 L35 199 L24 133 L356 133 L335 0 L473 0 L494 133 L574 133 L593 251 L513 251 Z M375 251 L214 251 L420 551 L422 551 L375 251 Z " />
<glyph glyph-name="five" unicode="5" horiz-adv-x="578" d="M598 626 L618 754 L290 754 L147 358 L170 358 C205 387 255 407 298 407 C381 407 435 339 422 257 C409 179 345 108 263 108 C194 108 139 150 109 206 L45 80 C93 13 164 -20 253 -20 C414 -20 544 89 570 251 C592 392 515 513 368 513 L330 511 L374 626 L598 626 Z " />
<glyph glyph-name="six" unicode="6" horiz-adv-x="578" d="M437 785 L190 488 C130 415 73 326 58 236 C34 85 133 -20 282 -20 C437 -20 565 91 590 246 C611 376 544 496 406 496 C385 496 363 493 345 486 L343 488 L533 707 L437 785 Z M300 100 C226 100 191 173 202 240 C213 308 270 381 344 381 C418 381 452 308 441 240 C430 173 374 100 300 100 L300 100 Z " />
<glyph glyph-name="seven" unicode="7" horiz-adv-x="578" d="M458 626 L56 49 L166 -20 L701 754 L162 754 L142 626 L458 626 Z " />
<glyph glyph-name="eight" unicode="8" horiz-adv-x="578" d="M342 333 C403 333 428 273 419 217 C411 162 366 102 305 102 C244 102 219 162 227 217 C236 273 281 333 342 333 L342 333 Z M229 393 C142 362 91 288 77 201 C55 65 159 -20 286 -20 C413 -20 543 65 565 201 C579 288 550 362 473 393 C540 424 588 490 599 559 C619 688 536 774 412 774 C288 774 177 688 157 559 C146 490 172 424 229 393 L229 393 Z M394 664 C449 664 472 608 465 559 C457 509 416 453 361 453 C306 453 283 509 291 559 C298 608 339 664 394 664 L394 664 Z " />
<glyph glyph-name="nine" unicode="9" horiz-adv-x="578" d="M259 -32 L506 265 C567 338 624 427 638 517 C662 669 564 774 415 774 C260 774 131 663 106 507 C86 377 153 257 291 257 C312 257 333 261 351 268 L353 266 L163 47 L259 -32 Z M397 654 C471 654 505 581 494 513 C483 445 426 372 352 372 C278 372 244 445 255 513 C266 581 323 654 397 654 L397 654 Z " />
<glyph glyph-name="colon" unicode="&#x3a;" horiz-adv-x="289" d="M170 158 C121 158 75 119 67 70 C59 21 93 -20 142 -20 C191 -20 237 21 245 70 C253 119 219 158 170 158 L170 158 Z M227 518 C178 518 132 479 124 430 C116 381 150 340 199 340 C248 340 294 381 302 430 C310 479 276 518 227 518 L227 518 Z " />
<glyph glyph-name="semicolon" unicode="&#x3b;" horiz-adv-x="289" d="M150 156 L-7 -148 L84 -159 L275 142 L150 156 Z M267 518 C218 518 172 479 164 430 C156 381 190 340 239 340 C288 340 334 381 342 430 C350 479 316 518 267 518 L267 518 Z " />
<glyph glyph-name="less" unicode="&#x3c;" horiz-adv-x="578" d="M64 196 L547 14 L567 140 L260 255 L261 257 L604 372 L624 498 L83 316 L64 196 Z " />
<glyph glyph-name="equal" unicode="&#x3d;" horiz-adv-x="578" d="M83 315 L595 315 L614 433 L102 433 L83 315 Z M46 79 L558 79 L576 197 L64 197 L46 79 Z " />
<glyph glyph-name="greater" unicode="&#x3e;" horiz-adv-x="578" d="M595 316 L112 498 L92 372 L399 257 L398 255 L55 140 L35 14 L576 196 L595 316 Z " />
<glyph glyph-name="question" unicode="&#x3f;" horiz-adv-x="487" d="M189 257 L329 257 L352 353 C451 375 530 461 546 559 C565 682 488 774 365 774 C244 774 132 679 118 558 L264 558 L266 570 C273 610 301 652 346 652 C392 652 408 604 401 564 C390 492 323 452 256 452 C244 452 232 453 220 456 L189 257 Z M245 158 C196 158 150 119 142 70 C134 21 168 -20 217 -20 C266 -20 312 21 320 70 C328 119 294 158 245 158 L245 158 Z " />
<glyph glyph-name="at" unicode="&#x40;" horiz-adv-x="975" d="M649 372 C628 299 583 238 494 238 C432 238 409 286 419 346 C431 420 485 493 566 493 C635 493 672 454 649 372 L649 372 Z M695 507 C664 560 625 579 574 579 C450 579 351 461 332 339 C315 235 382 152 470 152 C530 152 577 180 616 214 C616 176 632 153 660 152 C708 150 770 176 828 240 C876 292 911 370 924 454 C939 548 907 627 849 686 C792 747 716 774 628 774 C415 774 219 603 183 377 C146 148 293 -20 508 -20 C639 -20 711 10 788 49 L722 109 C681 82 618 66 535 66 C364 66 239 192 269 377 C296 552 443 688 611 688 C764 688 859 587 832 418 C816 317 745 224 699 224 C665 224 687 276 699 310 L790 570 L719 570 L695 507 Z " />
<glyph glyph-name="A" unicode="A" horiz-adv-x="676" d="M495 159 L528 0 L685 0 L522 774 L408 774 L-9 0 L146 0 L233 159 L495 159 Z M473 279 L294 279 L421 553 L423 553 L473 279 Z " />
<glyph glyph-name="B" unicode="B" horiz-adv-x="553" d="M253 328 L277 328 C351 328 430 324 415 226 C399 128 330 118 251 118 L220 118 L253 328 Z M54 0 L285 0 C422 0 536 66 560 214 C573 297 547 387 461 403 C513 433 541 495 550 549 C574 699 496 754 356 754 L173 754 L54 0 Z M302 636 L321 636 C383 636 424 616 411 539 C399 461 361 440 289 440 L271 440 L302 636 Z " />
<glyph glyph-name="C" unicode="C" horiz-adv-x="601" d="M674 730 C627 758 572 774 513 774 C292 774 111 585 77 371 C44 163 172 -20 384 -20 C445 -20 503 -1 562 25 L590 200 C541 153 473 120 410 120 C273 120 209 247 229 374 C250 504 351 634 492 634 C555 634 613 604 646 554 L674 730 Z " />
<glyph glyph-name="D" unicode="D" horiz-adv-x="646" d="M54 0 L263 0 C478 0 654 164 688 376 C722 591 601 754 383 754 L173 754 L54 0 Z M300 626 L324 626 C491 626 562 541 536 377 C512 228 426 128 245 128 L221 128 L300 626 Z " />
<glyph glyph-name="E" unicode="E" horiz-adv-x="488" d="M543 626 L563 754 L173 754 L54 0 L444 0 L464 128 L221 128 L254 332 L488 332 L508 460 L274 460 L300 626 L543 626 Z " />
<glyph glyph-name="F" unicode="F" horiz-adv-x="463" d="M527 626 L547 754 L173 754 L54 0 L201 0 L254 332 L467 332 L487 460 L274 460 L300 626 L527 626 Z " />
<glyph glyph-name="G" unicode="G" horiz-adv-x="739" d="M459 401 L440 281 L600 281 C582 190 492 110 400 110 C258 110 209 249 229 374 C249 499 342 644 484 644 C562 644 618 592 637 524 L778 594 C738 709 637 774 509 774 C284 774 111 589 77 374 C44 166 154 -20 374 -20 C608 -20 747 169 781 382 L784 401 L459 401 Z " />
<glyph glyph-name="H" unicode="H" horiz-adv-x="674" d="M273 457 L320 754 L173 754 L54 0 L201 0 L254 337 L526 337 L473 0 L620 0 L739 754 L592 754 L545 457 L273 457 Z " />
<glyph glyph-name="I" unicode="I" horiz-adv-x="254" d="M320 754 L173 754 L54 0 L201 0 L320 754 Z " />
<glyph glyph-name="J" unicode="J" horiz-adv-x="389" d="M458 754 L311 754 L237 281 C229 232 218 110 146 110 C122 110 101 137 97 159 L-14 51 C17 12 68 -20 123 -20 C191 -20 257 8 305 65 C357 126 368 186 380 256 L458 754 Z " />
<glyph glyph-name="K" unicode="K" horiz-adv-x="620" d="M272 436 L270 436 L320 754 L173 754 L54 0 L201 0 L255 339 L257 339 L444 0 L633 0 L395 406 L736 754 L555 754 L272 436 Z " />
<glyph glyph-name="L" unicode="L" horiz-adv-x="402" d="M320 754 L173 754 L54 0 L409 0 L429 128 L221 128 L320 754 Z " />
<glyph glyph-name="M" unicode="M" horiz-adv-x="836" d="M677 0 L825 0 L835 774 L729 774 L472 277 L365 774 L261 774 L11 0 L159 0 L300 468 L302 468 L391 -10 L442 -10 L689 468 L691 468 L677 0 Z " />
<glyph glyph-name="N" unicode="N" horiz-adv-x="759" d="M54 0 L201 0 L282 512 L284 512 L598 -15 L704 -15 L825 754 L678 754 L598 247 L596 247 L283 774 L177 774 L54 0 Z " />
<glyph glyph-name="O" unicode="O" horiz-adv-x="782" d="M824 378 C859 602 739 774 514 774 C289 774 113 602 78 378 C43 156 158 -20 388 -20 C618 -20 789 156 824 378 L824 378 Z M673 384 C654 268 574 125 411 125 C248 125 212 268 231 384 C250 506 352 629 491 629 C630 629 692 506 673 384 L673 384 Z " />
<glyph glyph-name="P" unicode="P" horiz-adv-x="528" d="M246 282 L319 282 C473 282 572 360 597 520 C624 691 531 754 373 754 L173 754 L54 0 L201 0 L246 282 Z M301 632 L327 632 C409 632 463 618 448 521 C432 423 382 404 295 404 L265 404 L301 632 Z " />
<glyph glyph-name="Q" unicode="Q" horiz-adv-x="782" d="M775 -17 L692 105 C762 180 808 276 824 378 C857 589 734 774 514 774 C294 774 111 589 78 378 C44 162 168 -20 388 -20 C457 -20 527 -3 583 31 L625 -32 L775 -17 Z M546 302 L392 290 L493 147 C471 134 437 122 410 122 C266 122 209 244 228 369 C249 499 348 634 491 634 C623 634 692 504 673 382 C664 330 640 267 601 226 L546 302 Z " />
<glyph glyph-name="R" unicode="R" horiz-adv-x="558" d="M401 318 C505 335 573 431 588 527 C614 688 521 754 372 754 L173 754 L54 0 L201 0 L249 304 L251 304 L386 0 L564 0 L401 318 Z M301 634 L321 634 C399 634 456 616 441 523 C426 431 365 407 284 407 L265 407 L301 634 Z " />
<glyph glyph-name="S" unicode="S" horiz-adv-x="526" d="M587 690 C549 741 462 774 395 774 C268 774 159 673 139 548 C120 431 184 382 274 342 C330 319 398 297 386 219 C377 161 331 110 271 110 C208 110 164 162 153 220 L43 127 C81 40 148 -20 252 -20 C406 -20 517 87 541 238 C581 491 273 438 293 565 C301 614 352 650 399 650 C448 650 480 626 502 588 L587 690 Z " />
<glyph glyph-name="T" unicode="T" horiz-adv-x="451" d="M398 626 L550 626 L570 754 L119 754 L99 626 L251 626 L152 0 L299 0 L398 626 Z " />
<glyph glyph-name="U" unicode="U" horiz-adv-x="660" d="M98 303 C69 119 125 -20 327 -20 C529 -20 629 119 658 303 L729 754 L582 754 L516 332 C501 239 472 108 347 108 C222 108 235 239 250 332 L316 754 L169 754 L98 303 Z " />
<glyph glyph-name="V" unicode="V" horiz-adv-x="639" d="M263 754 L105 754 L271 -20 L357 -20 L772 754 L614 754 L366 246 L364 246 L263 754 Z " />
<glyph glyph-name="W" unicode="W" horiz-adv-x="977" d="M259 754 L105 754 L224 -15 L332 -15 L552 478 L554 478 L626 -15 L734 -15 L1110 754 L956 754 L727 240 L725 240 L652 764 L565 764 L332 240 L330 240 L259 754 Z " />
<glyph glyph-name="X" unicode="X" horiz-adv-x="623" d="M296 399 L-8 0 L164 0 L352 276 L460 0 L631 0 L462 399 L727 754 L553 754 L406 520 L323 754 L149 754 L296 399 Z " />
<glyph glyph-name="Y" unicode="Y" horiz-adv-x="587" d="M273 346 L218 0 L365 0 L420 346 L722 754 L550 754 L365 492 L274 754 L103 754 L273 346 Z " />
<glyph glyph-name="Z" unicode="Z" horiz-adv-x="575" d="M259 128 L689 754 L175 754 L155 626 L436 626 L5 0 L552 0 L572 128 L259 128 Z " />
<glyph glyph-name="bracketleft" unicode="&#x5b;" horiz-adv-x="288" d="M270 754 L362 754 L377 845 L179 845 L31 -91 L229 -91 L243 0 L151 0 L270 754 Z " />
<glyph glyph-name="backslash" unicode="&#x5c;" horiz-adv-x="539" d="M164 848 L398 0 L510 0 L276 848 L164 848 Z " />
<glyph glyph-name="bracketright" unicode="&#x5d;" horiz-adv-x="288" d="M137 0 L45 0 L31 -91 L229 -91 L377 845 L179 845 L164 754 L256 754 L137 0 Z " />
<glyph glyph-name="asciicircum" unicode="&#x5e;" horiz-adv-x="578" d="M85 329 L214 329 L386 612 L468 329 L597 329 L469 754 L345 754 L85 329 Z " />
<glyph glyph-name="underscore" unicode="&#x5f;" horiz-adv-x="500" d="M488 -75 L-12 -75 L-20 -125 L480 -125 L488 -75 Z " />
<glyph glyph-name="grave" unicode="&#x60;" horiz-adv-x="380" d="M192 712 L319 562 L397 606 L304 774 L192 712 Z " />
<glyph glyph-name="a" unicode="a" horiz-adv-x="565" d="M592 491 L454 491 L446 445 C419 485 370 507 319 507 C178 507 75 378 54 248 C33 115 94 -16 238 -16 C289 -16 345 6 381 45 L383 45 L376 0 L514 0 L592 491 Z M290 108 C218 108 186 180 196 246 C206 312 262 383 334 383 C406 383 439 312 429 246 C419 180 362 108 290 108 L290 108 Z " />
<glyph glyph-name="b" unicode="b" horiz-adv-x="565" d="M50 0 L190 0 L197 46 L199 46 C221 6 270 -16 320 -16 C465 -16 568 114 589 248 C610 377 545 507 406 507 C354 507 299 484 261 446 L324 848 L184 848 L50 0 Z M309 108 C237 108 205 180 215 246 C225 312 281 383 353 383 C425 383 457 312 447 246 C437 180 381 108 309 108 L309 108 Z " />
<glyph glyph-name="c" unicode="c" horiz-adv-x="421" d="M459 476 C429 497 389 507 350 507 C202 507 77 390 54 244 C31 103 115 -16 260 -16 C303 -16 345 -7 386 14 L408 149 C378 121 340 102 302 102 C222 102 183 166 195 243 C207 315 264 389 343 389 C386 389 413 371 438 341 L459 476 Z " />
<glyph glyph-name="d" unicode="d" horiz-adv-x="565" d="M375 0 L515 0 L649 848 L509 848 L446 446 L444 446 C419 485 370 507 319 507 C178 507 75 378 54 248 C33 115 94 -16 238 -16 C289 -16 345 6 380 46 L382 46 L375 0 Z M290 108 C218 108 186 180 196 246 C206 312 262 383 334 383 C406 383 438 312 428 246 C418 180 362 108 290 108 L290 108 Z " />
<glyph glyph-name="e" unicode="e" horiz-adv-x="501" d="M521 223 L524 240 C547 388 494 507 333 507 C174 507 77 390 53 241 C30 92 105 -16 257 -16 C360 -16 455 39 505 137 L379 158 C354 119 320 91 274 91 C201 91 189 161 198 223 L521 223 Z M216 310 C231 361 270 409 326 409 C380 409 404 360 403 310 L216 310 Z " />
<glyph glyph-name="f" unicode="f" horiz-adv-x="303" d="M254 373 L366 373 L385 491 L273 491 L292 615 C299 655 305 736 367 736 C388 736 404 728 421 719 L441 844 C421 855 399 860 376 860 C241 860 175 755 156 635 L133 491 L86 491 L67 373 L114 373 L55 0 L195 0 L254 373 Z " />
<glyph glyph-name="g" unicode="g" horiz-adv-x="562" d="M590 491 L450 491 L442 444 L440 444 C418 482 372 507 323 507 C177 507 75 377 53 242 C32 110 89 -16 233 -16 C285 -16 341 9 378 49 L380 49 L375 17 C363 -57 347 -144 248 -144 C195 -144 164 -110 165 -58 L17 -58 C3 -189 113 -262 233 -262 C417 -262 491 -130 517 30 L590 491 Z M290 108 C218 108 185 179 196 245 C206 311 262 383 334 383 C406 383 438 311 428 245 C417 179 362 108 290 108 L290 108 Z " />
<glyph glyph-name="h" unicode="h" horiz-adv-x="540" d="M184 848 L50 0 L190 0 L228 243 C238 302 254 395 337 395 C416 395 401 319 391 260 L350 0 L490 0 L538 300 C556 414 532 507 400 507 C350 507 299 490 263 450 L261 450 L324 848 L184 848 Z " />
<glyph glyph-name="i" unicode="i" horiz-adv-x="253" d="M275 491 L135 491 L57 0 L197 0 L275 491 Z M251 780 C205 780 162 742 154 697 C147 651 178 614 224 614 C270 614 313 651 320 697 C328 742 297 780 251 780 L251 780 Z " />
<glyph glyph-name="j" unicode="j" horiz-adv-x="253" d="M275 491 L135 491 L16 -262 L156 -262 L275 491 Z M251 780 C205 780 162 742 154 697 C147 651 178 614 224 614 C270 614 313 651 320 697 C328 742 297 780 251 780 L251 780 Z " />
<glyph glyph-name="k" unicode="k" horiz-adv-x="526" d="M324 848 L184 848 L50 0 L190 0 L223 209 L225 209 L353 0 L537 0 L358 275 L599 491 L417 491 L241 311 L239 311 L324 848 Z " />
<glyph glyph-name="l" unicode="l" horiz-adv-x="239" d="M324 848 L184 848 L50 0 L190 0 L324 848 Z " />
<glyph glyph-name="m" unicode="m" horiz-adv-x="802" d="M268 491 L128 491 L50 0 L190 0 L228 241 C236 293 249 395 327 395 C400 395 378 297 370 249 L331 0 L471 0 L509 241 C517 292 533 395 609 395 C678 395 660 306 653 258 L612 0 L752 0 L800 306 C817 413 801 507 676 507 C619 507 559 478 521 430 C497 482 453 507 392 507 C347 507 296 486 263 447 L261 447 L268 491 Z " />
<glyph glyph-name="n" unicode="n" horiz-adv-x="540" d="M268 491 L128 491 L50 0 L190 0 L228 243 C238 302 254 395 337 395 C416 395 401 319 391 260 L350 0 L490 0 L538 300 C556 414 532 507 400 507 C350 507 299 490 263 446 L261 446 L268 491 Z " />
<glyph glyph-name="o" unicode="o" horiz-adv-x="548" d="M354 507 C201 507 79 398 55 245 C31 93 117 -16 271 -16 C425 -16 547 93 571 245 C595 398 507 507 354 507 L354 507 Z M335 383 C407 383 440 313 429 245 C418 179 363 108 291 108 C219 108 186 179 197 245 C208 313 263 383 335 383 L335 383 Z " />
<glyph glyph-name="p" unicode="p" horiz-adv-x="565" d="M268 491 L128 491 L9 -262 L149 -262 L197 46 L199 46 C221 6 270 -16 320 -16 C465 -16 568 114 589 248 C610 377 545 507 406 507 C354 507 299 484 261 446 L268 491 Z M309 108 C237 108 205 180 215 246 C225 312 281 383 353 383 C425 383 457 312 447 246 C437 180 381 108 309 108 L309 108 Z " />
<glyph glyph-name="q" unicode="q" horiz-adv-x="565" d="M290 108 C218 108 186 180 196 246 C206 312 262 383 334 383 C406 383 438 312 428 246 C418 180 362 108 290 108 L290 108 Z M593 491 L453 491 L446 446 L444 446 C419 485 370 507 319 507 C178 507 75 378 54 248 C33 115 94 -16 238 -16 C289 -16 345 6 380 46 L382 46 L334 -262 L474 -262 L593 491 Z " />
<glyph glyph-name="r" unicode="r" horiz-adv-x="367" d="M268 491 L128 491 L50 0 L190 0 L225 221 C237 297 261 383 358 383 C379 383 398 377 413 365 L450 495 C434 502 414 507 394 507 C342 507 297 483 262 440 L260 440 L268 491 Z " />
<glyph glyph-name="s" unicode="s" horiz-adv-x="410" d="M434 456 C400 491 336 507 284 507 C192 507 118 440 103 348 C91 269 135 240 181 219 C226 198 274 188 267 145 C262 113 234 92 203 92 C162 92 130 119 108 149 L30 66 C65 14 124 -16 190 -16 C293 -16 392 49 409 158 C422 243 378 277 330 299 C284 321 234 331 240 367 C244 391 270 409 293 409 C321 409 344 394 361 375 L434 456 Z " />
<glyph glyph-name="t" unicode="t" horiz-adv-x="274" d="M266 373 L352 373 L371 491 L285 491 L311 657 L171 657 L145 491 L97 491 L78 373 L126 373 L67 0 L207 0 L266 373 Z " />
<glyph glyph-name="u" unicode="u" horiz-adv-x="535" d="M125 491 L79 202 C56 59 118 -16 264 -16 C410 -16 496 59 519 202 L565 491 L425 491 L383 225 C374 169 354 102 283 102 C212 102 214 169 223 225 L265 491 L125 491 Z " />
<glyph glyph-name="v" unicode="v" horiz-adv-x="488" d="M214 491 L60 491 L205 -10 L277 -10 L583 491 L430 491 L285 214 L214 491 Z " />
<glyph glyph-name="w" unicode="w" horiz-adv-x="783" d="M213 491 L60 491 L206 -10 L278 -10 L443 289 L500 -10 L571 -10 L879 491 L727 491 L577 204 L504 507 L437 507 L270 208 L213 491 Z " />
<glyph glyph-name="x" unicode="x" horiz-adv-x="549" d="M234 267 L-18 0 L156 0 L296 171 L395 0 L567 0 L402 267 L612 491 L440 491 L342 364 L271 491 L101 491 L234 267 Z " />
<glyph glyph-name="y" unicode="y" horiz-adv-x="520" d="M203 75 L-12 -262 L142 -262 L618 491 L462 491 L292 212 L219 491 L60 491 L203 75 Z " />
<glyph glyph-name="z" unicode="z" horiz-adv-x="481" d="M251 118 L559 491 L116 491 L97 373 L309 373 L-1 0 L465 0 L484 118 L251 118 Z " />
<glyph glyph-name="braceleft" unicode="&#x7b;" horiz-adv-x="389" d="M116 300 C162 278 178 224 167 149 L138 -33 C125 -113 172 -165 202 -165 L294 -165 L308 -74 L268 -74 C237 -74 242 -45 247 -12 L275 165 C293 280 238 328 226 336 C241 345 311 393 329 508 L357 685 C363 718 367 747 398 747 L438 747 L453 838 L361 838 C331 838 267 786 255 706 L226 524 C214 449 181 395 127 373 L116 300 Z " />
<glyph glyph-name="bar" unicode="&#x7c;" horiz-adv-x="439" d="M226 896 L226 -298 L337 -298 L337 896 L226 896 Z " />
<glyph glyph-name="braceright" unicode="&#x7d;" horiz-adv-x="389" d="M380 373 C334 395 317 449 329 524 L358 706 C370 786 324 838 294 838 L202 838 L187 747 L227 747 C258 747 254 718 248 685 L220 508 C202 393 258 345 269 336 C255 328 184 280 166 165 L138 -12 C133 -45 128 -74 97 -74 L57 -74 L43 -165 L135 -165 C165 -165 228 -113 241 -33 L270 149 C281 224 315 278 369 300 L380 373 Z " />
<glyph glyph-name="asciitilde" unicode="&#x7e;" horiz-adv-x="578" d="M503 363 C491 338 460 285 437 285 C410 285 374 309 351 332 C322 358 284 383 247 383 C176 383 115 286 71 238 L156 150 C172 179 202 227 224 227 C251 227 278 198 314 174 C342 155 371 130 414 130 C486 130 549 219 588 273 L503 363 Z " />
<glyph glyph-name="uni00A0" unicode="&#xa0;" horiz-adv-x="289" d="" />
<glyph glyph-name="exclamdown" unicode="&#xa1;" horiz-adv-x="325" d="M243 514 C194 514 148 475 140 426 C133 377 166 336 215 336 C264 336 311 377 318 426 C326 475 292 514 243 514 L243 514 Z M49 -264 L191 -264 L276 273 L134 273 L49 -264 Z " />
<glyph glyph-name="cent" unicode="&#xa2;" horiz-adv-x="578" d="M504 724 L431 724 L417 640 C280 622 186 510 165 379 C145 254 204 130 335 119 L320 28 L393 28 L408 121 C438 124 467 132 495 146 L517 287 L515 287 C490 256 449 237 410 237 C332 237 295 303 307 376 C318 449 375 521 454 521 C499 521 522 504 547 471 L569 612 C546 626 517 632 490 637 L504 724 Z " />
<glyph glyph-name="sterling" unicode="&#xa3;" horiz-adv-x="578" d="M119 0 C134 31 161 50 194 50 C229 50 265 36 301 21 C339 6 377 -8 416 -8 C511 -8 562 67 594 148 L494 170 C481 142 463 111 430 111 C415 111 392 117 369 127 L306 154 C311 179 317 205 322 230 C328 256 331 284 331 308 L443 308 L453 374 L317 374 L314 384 C299 428 286 473 294 523 C304 585 348 651 418 651 C477 651 508 587 496 533 L489 499 L639 516 C656 669 608 774 442 774 C299 774 173 673 149 527 C142 478 151 418 166 374 L73 374 L63 308 L194 308 C204 282 207 253 202 224 C199 203 192 184 182 165 C102 162 46 87 13 19 L119 0 Z " />
<glyph glyph-name="currency" unicode="&#xa4;" horiz-adv-x="578" d="M376 550 C312 550 263 531 228 506 L175 563 L89 489 L141 434 C114 401 91 357 82 300 C72 243 82 199 98 166 L30 111 L92 37 L163 94 C190 69 233 50 297 50 C361 50 410 69 445 94 L498 37 L584 111 L532 166 C560 199 582 243 592 300 C601 357 592 401 575 434 L643 489 L581 563 L510 506 C483 531 440 550 376 550 L376 550 Z M312 146 C222 146 164 214 178 300 C192 391 269 454 361 454 C453 454 510 391 496 300 C482 214 401 146 312 146 L312 146 Z " />
<glyph glyph-name="yen" unicode="&#xa5;" horiz-adv-x="578" d="M366 492 L269 754 L98 754 L224 449 L90 449 L80 383 L252 383 L270 346 L264 310 L68 310 L58 244 L254 244 L215 0 L362 0 L401 244 L597 244 L607 310 L411 310 L417 346 L444 383 L619 383 L629 449 L495 449 L717 754 L546 754 L366 492 Z " />
<glyph glyph-name="brokenbar" unicode="&#xa6;" horiz-adv-x="439" d="M226 806 L226 389 L336 389 L336 806 L226 806 Z M226 209 L226 -208 L336 -208 L336 209 L226 209 Z " />
<glyph glyph-name="section" unicode="&#xa7;" horiz-adv-x="577" d="M290 342 C257 364 225 379 233 429 C238 458 259 488 285 505 L412 418 C443 397 472 381 465 335 C460 306 442 276 416 257 L290 342 Z M590 684 C603 796 524 860 417 860 C307 860 206 787 188 674 C182 636 187 593 203 562 C151 518 113 464 103 399 C90 316 127 275 189 238 L310 166 C347 144 387 122 379 70 C372 23 333 -19 284 -19 C221 -19 195 42 205 99 L67 99 C37 -45 129 -132 264 -132 C397 -132 500 -44 519 75 C525 116 520 166 498 198 C548 238 584 299 594 358 C608 450 558 487 492 528 L394 588 C359 610 319 632 327 683 C333 719 362 757 401 757 C423 757 440 749 450 736 C461 722 466 704 465 684 L590 684 Z " />
<glyph glyph-name="dieresis" unicode="&#xa8;" horiz-adv-x="400" d="M216 762 C172 762 130 726 123 682 C116 638 146 602 190 602 C234 602 276 638 283 682 C290 726 260 762 216 762 L216 762 Z M427 762 C383 762 341 726 334 682 C327 638 357 602 401 602 C445 602 487 638 494 682 C501 726 471 762 427 762 L427 762 Z " />
<glyph glyph-name="copyright" unicode="&#xa9;" horiz-adv-x="800" d="M397 -20 C617 -20 819 156 854 377 C889 598 743 774 523 774 C303 774 101 598 66 377 C31 156 177 -20 397 -20 L397 -20 Z M509 688 C679 688 796 555 768 377 C740 200 580 66 410 66 C240 66 124 200 152 377 C180 555 339 688 509 688 L509 688 Z M675 459 C672 553 609 622 499 622 C370 622 258 511 237 380 C216 249 293 138 422 138 C532 138 617 207 650 301 L562 301 C541 248 483 224 435 224 C353 224 311 302 323 380 C336 458 403 536 485 536 C533 536 583 512 587 459 L675 459 Z " />
<glyph glyph-name="ordfeminine" unicode="&#xaa;" horiz-adv-x="339" d="M453 764 L364 764 L360 737 C342 761 310 774 277 774 C185 774 118 696 106 618 C93 539 134 460 228 460 C261 460 297 473 320 497 L322 497 L317 470 L406 470 L453 764 Z M261 534 C214 534 192 578 198 617 C204 657 240 700 287 700 C334 700 356 657 350 617 C344 578 308 534 261 534 L261 534 Z " />
<glyph glyph-name="guillemotleft" unicode="&#xab;" horiz-adv-x="514" d="M390 320 L543 507 L466 563 L269 320 L390 80 L486 138 L390 320 Z M190 320 L343 507 L266 563 L69 320 L190 80 L286 138 L190 320 Z " />
<glyph glyph-name="logicalnot" unicode="&#xac;" horiz-adv-x="578" d="M449 142 L567 142 L614 433 L102 433 L83 315 L477 315 L449 142 Z " />
<glyph glyph-name="uni00AD" unicode="&#xad;" horiz-adv-x="330" d="M103 378 L85 263 L329 263 L347 378 L103 378 Z " />
<glyph glyph-name="registered" unicode="&#xae;" horiz-adv-x="800" d="M397 -20 C617 -20 819 156 854 377 C889 598 743 774 523 774 C303 774 101 598 66 377 C31 156 177 -20 397 -20 L397 -20 Z M509 688 C679 688 796 555 768 377 C740 200 580 66 410 66 C240 66 124 200 152 377 C180 555 339 688 509 688 L509 688 Z M536 337 C610 342 656 383 668 459 C685 568 623 585 528 585 L328 585 L262 173 L348 173 L374 337 L446 337 L516 173 L610 173 L536 337 Z M386 411 L402 511 L497 511 C537 511 592 511 585 466 C578 421 548 411 502 411 L386 411 Z " />
<glyph glyph-name="macron" unicode="&#xaf;" horiz-adv-x="400" d="M128 754 L114 666 L496 666 L510 754 L128 754 Z " />
<glyph glyph-name="degree" unicode="&#xb0;" horiz-adv-x="400" d="M449 624 C462 706 405 774 323 774 C240 774 161 706 149 624 C136 541 192 474 275 474 C357 474 436 541 449 624 L449 624 Z M311 706 C357 706 388 669 381 624 C374 578 332 542 287 542 C241 542 211 578 217 624 C223 669 266 706 311 706 L311 706 Z " />
<glyph glyph-name="plusminus" unicode="&#xb1;" horiz-adv-x="578" d="M33 0 L545 0 L564 118 L52 118 L33 0 Z M330 630 L303 458 L106 458 L87 340 L284 340 L257 168 L375 168 L402 340 L599 340 L618 458 L421 458 L448 630 L330 630 Z " />
<glyph glyph-name="twosuperior" unicode="&#xb2;" horiz-adv-x="346" d="M238 379 L322 456 C375 504 423 554 433 621 C446 703 386 766 297 766 C196 766 132 699 112 612 L213 612 C216 646 242 690 285 690 C326 690 343 658 337 616 C328 565 244 487 204 447 L56 302 L386 302 L398 379 L238 379 Z " />
<glyph glyph-name="threesuperior" unicode="&#xb3;" horiz-adv-x="346" d="M222 644 C227 672 250 701 284 701 C320 701 336 674 331 644 C325 606 299 581 259 581 L248 581 L238 518 L256 519 C300 522 320 483 314 447 C308 412 279 375 236 375 C194 375 173 405 177 441 L81 441 C73 360 130 298 220 298 C314 298 392 353 406 442 C413 483 403 534 360 552 C397 573 417 612 422 647 C435 725 386 774 302 774 C214 774 151 722 131 644 L222 644 Z " />
<glyph glyph-name="acute" unicode="&#xb4;" horiz-adv-x="380" d="M322 774 L175 606 L239 562 L414 712 L322 774 Z " />
<glyph glyph-name="mu" unicode="&#xb5;" horiz-adv-x="535" d="M125 491 L6 -262 L146 -262 L189 14 C208 0 225 -16 264 -16 C410 -16 496 59 519 202 L565 491 L425 491 L383 225 C374 169 354 102 283 102 C212 102 214 169 223 225 L265 491 L125 491 Z " />
<glyph glyph-name="paragraph" unicode="&#xb6;" horiz-adv-x="577" d="M677 754 L355 754 C223 754 110 618 100 497 C88 362 159 283 272 283 L203 -153 L307 -153 L436 660 L498 660 L369 -153 L473 -153 L602 660 L663 660 L677 754 Z " />
<glyph glyph-name="periodcentered" unicode="&#xb7;" horiz-adv-x="289" d="M200 345 C151 345 104 306 97 257 C89 208 122 167 171 167 C220 167 267 208 275 257 C282 306 249 345 200 345 L200 345 Z " />
<glyph glyph-name="cedilla" unicode="&#xb8;" horiz-adv-x="380" d="M190 -20 L68 -168 L136 -206 L274 -67 L190 -20 Z " />
<glyph glyph-name="onesuperior" unicode="&#xb9;" horiz-adv-x="346" d="M264 678 L205 302 L301 302 L372 754 L212 754 L200 678 L264 678 Z " />
<glyph glyph-name="ordmasculine" unicode="&#xba;" horiz-adv-x="339" d="M293 774 C194 774 114 708 100 617 C85 525 143 460 243 460 C343 460 421 525 436 617 C450 708 392 774 293 774 L293 774 Z M281 700 C328 700 349 658 343 618 C337 578 302 534 255 534 C208 534 187 578 193 618 C199 658 234 700 281 700 L281 700 Z " />
<glyph glyph-name="guillemotright" unicode="&#xbb;" horiz-adv-x="514" d="M72 138 L150 80 L347 320 L226 563 L131 507 L226 320 L72 138 Z M272 138 L350 80 L547 320 L426 563 L331 507 L426 320 L272 138 Z " />
<glyph glyph-name="onequarter" unicode="&#xbc;" horiz-adv-x="867" d="M799 151 L848 461 L761 461 L489 119 L483 80 L698 80 L685 0 L775 0 L788 80 L840 80 L851 151 L799 151 Z M709 151 L604 151 L735 331 L737 331 L709 151 Z M707 780 L179 4 L242 -31 L769 746 L707 780 Z M211 678 L152 302 L248 302 L319 754 L159 754 L147 678 L211 678 Z " />
<glyph glyph-name="onehalf" unicode="&#xbd;" horiz-adv-x="867" d="M661 780 L133 4 L196 -31 L723 746 L661 780 Z M211 678 L152 302 L248 302 L319 754 L159 754 L147 678 L211 678 Z M679 77 L763 154 C816 202 864 252 875 319 C888 401 827 464 738 464 C637 464 573 397 553 310 L654 310 C657 344 683 388 726 388 C767 388 784 356 778 314 C770 263 685 185 645 145 L497 0 L827 0 L839 77 L679 77 Z " />
<glyph glyph-name="threequarters" unicode="&#xbe;" horiz-adv-x="867" d="M799 151 L848 461 L761 461 L489 119 L483 80 L698 80 L685 0 L775 0 L788 80 L840 80 L851 151 L799 151 Z M709 151 L604 151 L735 331 L737 331 L709 151 Z M759 780 L231 4 L294 -31 L821 746 L759 780 Z M251 644 C256 672 279 701 313 701 C349 701 365 674 360 644 C354 606 328 581 288 581 L277 581 L267 518 L285 519 C329 522 349 483 343 447 C337 412 308 375 265 375 C223 375 202 405 206 441 L110 441 C102 360 159 298 249 298 C343 298 421 353 435 442 C442 483 432 534 389 552 C426 573 446 612 451 647 C464 725 415 774 331 774 C243 774 180 722 160 644 L251 644 Z " />
<glyph glyph-name="questiondown" unicode="&#xbf;" horiz-adv-x="487" d="M379 253 L239 253 L216 157 C116 135 38 49 22 -49 C3 -172 80 -264 203 -264 C324 -264 436 -169 449 -48 L303 -48 L301 -60 C295 -100 267 -142 222 -142 C176 -142 160 -94 166 -54 C178 18 245 58 312 58 C324 58 336 57 348 54 L379 253 Z M348 514 C299 514 253 475 245 426 C238 377 271 336 320 336 C369 336 416 377 423 426 C431 475 397 514 348 514 L348 514 Z " />
<glyph glyph-name="Agrave" unicode="&#xc0;" horiz-adv-x="676" d="M495 159 L528 0 L685 0 L522 774 L408 774 L-9 0 L146 0 L233 159 L495 159 Z M473 279 L294 279 L421 553 L423 553 L473 279 Z M351 940 L478 790 L556 834 L463 1002 L351 940 Z " />
<glyph glyph-name="Aacute" unicode="&#xc1;" horiz-adv-x="676" d="M495 159 L528 0 L685 0 L522 774 L408 774 L-9 0 L146 0 L233 159 L495 159 Z M473 279 L294 279 L421 553 L423 553 L473 279 Z M536 1002 L389 834 L453 790 L628 940 L536 1002 Z " />
<glyph glyph-name="Acircumflex" unicode="&#xc2;" horiz-adv-x="676" d="M495 159 L528 0 L685 0 L522 774 L408 774 L-9 0 L146 0 L233 159 L495 159 Z M473 279 L294 279 L421 553 L423 553 L473 279 Z M302 848 L352 782 L478 886 L572 782 L642 848 L497 1002 L302 848 Z " />
<glyph glyph-name="Atilde" unicode="&#xc3;" horiz-adv-x="676" d="M495 159 L528 0 L685 0 L522 774 L408 774 L-9 0 L146 0 L233 159 L495 159 Z M473 279 L294 279 L421 553 L423 553 L473 279 Z M362 832 C371 853 386 873 411 873 C430 873 452 862 474 851 C496 840 518 829 539 829 C614 829 661 906 683 970 L600 970 C585 948 574 928 546 928 C530 928 509 940 484 950 C461 960 435 971 411 971 C342 971 294 890 280 832 L362 832 Z " />
<glyph glyph-name="Adieresis" unicode="&#xc4;" horiz-adv-x="676" d="M495 159 L528 0 L685 0 L522 774 L408 774 L-9 0 L146 0 L233 159 L495 159 Z M473 279 L294 279 L421 553 L423 553 L473 279 Z M390 990 C346 990 304 954 297 910 C290 866 320 830 364 830 C408 830 450 866 457 910 C464 954 434 990 390 990 L390 990 Z M601 990 C557 990 515 954 508 910 C501 866 531 830 575 830 C619 830 661 866 668 910 C675 954 645 990 601 990 L601 990 Z " />
<glyph glyph-name="Aring" unicode="&#xc5;" horiz-adv-x="676" d="M495 159 L528 0 L685 0 L522 774 L408 774 L-9 0 L146 0 L233 159 L495 159 Z M473 279 L294 279 L421 553 L423 553 L473 279 Z M497 1002 C442 1002 390 957 381 902 C372 846 410 801 465 801 C520 801 572 846 581 902 C590 957 552 1002 497 1002 L497 1002 Z M487 943 C510 943 525 924 522 902 C518 879 497 860 474 860 C451 860 436 879 440 902 C443 924 464 943 487 943 L487 943 Z " />
<glyph glyph-name="AE" unicode="&#xc6;" horiz-adv-x="921" d="M492 159 L526 0 L929 0 L904 128 L654 128 L611 331 L857 331 L832 459 L586 459 L551 626 L801 626 L775 754 L403 754 L-9 0 L147 0 L231 159 L492 159 Z M471 279 L293 279 L417 535 L419 535 L471 279 Z " />
<glyph glyph-name="Ccedilla" unicode="&#xc7;" horiz-adv-x="601" d="M674 730 C627 758 572 774 513 774 C292 774 111 585 77 371 C44 163 172 -20 384 -20 C445 -20 503 -1 562 25 L590 200 C541 153 473 120 410 120 C273 120 209 247 229 374 C250 504 351 634 492 634 C555 634 613 604 646 554 L674 730 Z M301 -20 L179 -168 L247 -206 L385 -67 L301 -20 Z " />
<glyph glyph-name="Egrave" unicode="&#xc8;" horiz-adv-x="488" d="M543 626 L563 754 L173 754 L54 0 L444 0 L464 128 L221 128 L254 332 L488 332 L508 460 L274 460 L300 626 L543 626 Z M257 940 L384 790 L462 834 L369 1002 L257 940 Z " />
<glyph glyph-name="Eacute" unicode="&#xc9;" horiz-adv-x="488" d="M543 626 L563 754 L173 754 L54 0 L444 0 L464 128 L221 128 L254 332 L488 332 L508 460 L274 460 L300 626 L543 626 Z M442 1002 L295 834 L359 790 L534 940 L442 1002 Z " />
<glyph glyph-name="Ecircumflex" unicode="&#xca;" horiz-adv-x="488" d="M543 626 L563 754 L173 754 L54 0 L444 0 L464 128 L221 128 L254 332 L488 332 L508 460 L274 460 L300 626 L543 626 Z M208 848 L258 782 L384 886 L478 782 L548 848 L403 1002 L208 848 Z " />
<glyph glyph-name="Edieresis" unicode="&#xcb;" horiz-adv-x="488" d="M543 626 L563 754 L173 754 L54 0 L444 0 L464 128 L221 128 L254 332 L488 332 L508 460 L274 460 L300 626 L543 626 Z M296 990 C252 990 210 954 203 910 C196 866 226 830 270 830 C314 830 356 866 363 910 C370 954 340 990 296 990 L296 990 Z M507 990 C463 990 421 954 414 910 C407 866 437 830 481 830 C525 830 567 866 574 910 C581 954 551 990 507 990 L507 990 Z " />
<glyph glyph-name="Igrave" unicode="&#xcc;" horiz-adv-x="254" d="M320 754 L173 754 L54 0 L201 0 L320 754 Z M150 940 L277 790 L355 834 L262 1002 L150 940 Z " />
<glyph glyph-name="Iacute" unicode="&#xcd;" horiz-adv-x="254" d="M320 754 L173 754 L54 0 L201 0 L320 754 Z M310 1002 L163 834 L227 790 L402 940 L310 1002 Z " />
<glyph glyph-name="Icircumflex" unicode="&#xce;" horiz-adv-x="254" d="M320 754 L173 754 L54 0 L201 0 L320 754 Z M91 848 L141 782 L267 886 L361 782 L431 848 L286 1002 L91 848 Z " />
<glyph glyph-name="Idieresis" unicode="&#xcf;" horiz-adv-x="254" d="M320 754 L173 754 L54 0 L201 0 L320 754 Z M179 990 C135 990 93 954 86 910 C79 866 109 830 153 830 C197 830 239 866 246 910 C253 954 223 990 179 990 L179 990 Z M390 990 C346 990 304 954 297 910 C290 866 320 830 364 830 C408 830 450 866 457 910 C464 954 434 990 390 990 L390 990 Z " />
<glyph glyph-name="Eth" unicode="&#xd0;" horiz-adv-x="646" d="M54 0 L263 0 C478 0 654 164 688 376 C722 591 601 754 383 754 L173 754 L126 457 L54 457 L35 337 L107 337 L54 0 Z M300 626 L324 626 C491 626 562 541 536 377 C512 228 426 128 245 128 L221 128 L254 337 L367 337 L386 457 L273 457 L300 626 Z " />
<glyph glyph-name="Ntilde" unicode="&#xd1;" horiz-adv-x="759" d="M54 0 L201 0 L282 512 L284 512 L598 -15 L704 -15 L825 754 L678 754 L598 247 L596 247 L283 774 L177 774 L54 0 Z M404 832 C413 853 428 873 453 873 C472 873 494 862 516 851 C538 840 560 829 581 829 C656 829 703 906 725 970 L642 970 C627 948 616 928 588 928 C572 928 551 940 526 950 C503 960 477 971 453 971 C384 971 336 890 322 832 L404 832 Z " />
<glyph glyph-name="Ograve" unicode="&#xd2;" horiz-adv-x="782" d="M824 378 C859 602 739 774 514 774 C289 774 113 602 78 378 C43 156 158 -20 388 -20 C618 -20 789 156 824 378 L824 378 Z M673 384 C654 268 574 125 411 125 C248 125 212 268 231 384 C250 506 352 629 491 629 C630 629 692 506 673 384 L673 384 Z M404 940 L531 790 L609 834 L516 1002 L404 940 Z " />
<glyph glyph-name="Oacute" unicode="&#xd3;" horiz-adv-x="782" d="M824 378 C859 602 739 774 514 774 C289 774 113 602 78 378 C43 156 158 -20 388 -20 C618 -20 789 156 824 378 L824 378 Z M673 384 C654 268 574 125 411 125 C248 125 212 268 231 384 C250 506 352 629 491 629 C630 629 692 506 673 384 L673 384 Z M589 1002 L442 834 L506 790 L681 940 L589 1002 Z " />
<glyph glyph-name="Ocircumflex" unicode="&#xd4;" horiz-adv-x="782" d="M824 378 C859 602 739 774 514 774 C289 774 113 602 78 378 C43 156 158 -20 388 -20 C618 -20 789 156 824 378 L824 378 Z M673 384 C654 268 574 125 411 125 C248 125 212 268 231 384 C250 506 352 629 491 629 C630 629 692 506 673 384 L673 384 Z M355 848 L405 782 L531 886 L625 782 L695 848 L550 1002 L355 848 Z " />
<glyph glyph-name="Otilde" unicode="&#xd5;" horiz-adv-x="782" d="M824 378 C859 602 739 774 514 774 C289 774 113 602 78 378 C43 156 158 -20 388 -20 C618 -20 789 156 824 378 L824 378 Z M673 384 C654 268 574 125 411 125 C248 125 212 268 231 384 C250 506 352 629 491 629 C630 629 692 506 673 384 L673 384 Z M415 832 C424 853 439 873 464 873 C483 873 505 862 527 851 C549 840 571 829 592 829 C667 829 714 906 736 970 L653 970 C638 948 627 928 599 928 C583 928 562 940 537 950 C514 960 488 971 464 971 C395 971 347 890 333 832 L415 832 Z " />
<glyph glyph-name="Odieresis" unicode="&#xd6;" horiz-adv-x="782" d="M824 378 C859 602 739 774 514 774 C289 774 113 602 78 378 C43 156 158 -20 388 -20 C618 -20 789 156 824 378 L824 378 Z M673 384 C654 268 574 125 411 125 C248 125 212 268 231 384 C250 506 352 629 491 629 C630 629 692 506 673 384 L673 384 Z M443 990 C399 990 357 954 350 910 C343 866 373 830 417 830 C461 830 503 866 510 910 C517 954 487 990 443 990 L443 990 Z M654 990 C610 990 568 954 561 910 C554 866 584 830 628 830 C672 830 714 866 721 910 C728 954 698 990 654 990 L654 990 Z " />
<glyph glyph-name="multiply" unicode="&#xd7;" horiz-adv-x="578" d="M101 428 L247 256 L46 84 L117 0 L316 173 L461 0 L558 84 L414 256 L613 428 L542 512 L344 339 L198 512 L101 428 Z " />
<glyph glyph-name="Oslash" unicode="&#xd8;" horiz-adv-x="782" d="M664 504 C677 467 679 425 673 384 C654 268 574 125 411 125 C358 125 318 140 289 166 L664 504 Z M238 247 C225 290 224 339 231 384 C250 506 352 629 491 629 C542 629 582 613 612 586 L238 247 Z M1 33 L64 -38 L169 57 C221 9 296 -20 388 -20 C618 -20 789 156 824 378 C838 470 827 554 791 620 L900 718 L833 786 L733 696 C679 746 605 774 514 774 C289 774 113 602 78 378 C63 285 75 199 111 132 L1 33 Z " />
<glyph glyph-name="Ugrave" unicode="&#xd9;" horiz-adv-x="660" d="M98 303 C69 119 125 -20 327 -20 C529 -20 629 119 658 303 L729 754 L582 754 L516 332 C501 239 472 108 347 108 C222 108 235 239 250 332 L316 754 L169 754 L98 303 Z M318 940 L445 790 L523 834 L430 1002 L318 940 Z " />
<glyph glyph-name="Uacute" unicode="&#xda;" horiz-adv-x="660" d="M98 303 C69 119 125 -20 327 -20 C529 -20 629 119 658 303 L729 754 L582 754 L516 332 C501 239 472 108 347 108 C222 108 235 239 250 332 L316 754 L169 754 L98 303 Z M548 1002 L401 834 L465 790 L640 940 L548 1002 Z " />
<glyph glyph-name="Ucircumflex" unicode="&#xdb;" horiz-adv-x="660" d="M98 303 C69 119 125 -20 327 -20 C529 -20 629 119 658 303 L729 754 L582 754 L516 332 C501 239 472 108 347 108 C222 108 235 239 250 332 L316 754 L169 754 L98 303 Z M294 848 L344 782 L470 886 L564 782 L634 848 L489 1002 L294 848 Z " />
<glyph glyph-name="Udieresis" unicode="&#xdc;" horiz-adv-x="660" d="M98 303 C69 119 125 -20 327 -20 C529 -20 629 119 658 303 L729 754 L582 754 L516 332 C501 239 472 108 347 108 C222 108 235 239 250 332 L316 754 L169 754 L98 303 Z M390 990 C346 990 304 954 297 910 C290 866 320 830 364 830 C408 830 450 866 457 910 C464 954 434 990 390 990 L390 990 Z M601 990 C557 990 515 954 508 910 C501 866 531 830 575 830 C619 830 661 866 668 910 C675 954 645 990 601 990 L601 990 Z " />
<glyph glyph-name="Yacute" unicode="&#xdd;" horiz-adv-x="587" d="M273 346 L218 0 L365 0 L420 346 L722 754 L550 754 L365 492 L274 754 L103 754 L273 346 Z M527 1002 L380 834 L444 790 L619 940 L527 1002 Z " />
<glyph glyph-name="Thorn" unicode="&#xde;" horiz-adv-x="528" d="M227 162 L300 162 C454 162 553 240 578 400 C605 571 512 634 354 634 L301 634 L320 754 L173 754 L54 0 L201 0 L227 162 Z M282 512 L308 512 C390 512 444 498 429 401 C413 303 363 284 276 284 L246 284 L282 512 Z " />
<glyph glyph-name="germandbls" unicode="&#xdf;" horiz-adv-x="561" d="M50 0 L190 0 L276 546 C286 608 295 738 388 738 C443 738 468 692 459 640 C449 575 404 528 336 529 L317 411 C406 410 454 348 440 260 C427 175 356 103 269 106 L249 -16 L269 -16 C432 -16 560 90 586 254 C601 348 577 441 492 480 C552 522 583 575 594 642 C614 773 538 860 408 860 C246 860 169 753 146 604 L50 0 Z " />
<glyph glyph-name="agrave" unicode="&#xe0;" horiz-adv-x="565" d="M592 491 L454 491 L446 445 C419 485 370 507 319 507 C178 507 75 378 54 248 C33 115 94 -16 238 -16 C289 -16 345 6 381 45 L383 45 L376 0 L514 0 L592 491 Z M290 108 C218 108 186 180 196 246 C206 312 262 383 334 383 C406 383 439 312 429 246 C419 180 362 108 290 108 L290 108 Z M245 712 L372 562 L450 606 L357 774 L245 712 Z " />
<glyph glyph-name="aacute" unicode="&#xe1;" horiz-adv-x="565" d="M592 491 L454 491 L446 445 C419 485 370 507 319 507 C178 507 75 378 54 248 C33 115 94 -16 238 -16 C289 -16 345 6 381 45 L383 45 L376 0 L514 0 L592 491 Z M290 108 C218 108 186 180 196 246 C206 312 262 383 334 383 C406 383 439 312 429 246 C419 180 362 108 290 108 L290 108 Z M455 774 L308 606 L372 562 L547 712 L455 774 Z " />
<glyph glyph-name="acircumflex" unicode="&#xe2;" horiz-adv-x="565" d="M592 491 L454 491 L446 445 C419 485 370 507 319 507 C178 507 75 378 54 248 C33 115 94 -16 238 -16 C289 -16 345 6 381 45 L383 45 L376 0 L514 0 L592 491 Z M290 108 C218 108 186 180 196 246 C206 312 262 383 334 383 C406 383 439 312 429 246 C419 180 362 108 290 108 L290 108 Z M211 620 L261 554 L387 658 L481 554 L551 620 L406 774 L211 620 Z " />
<glyph glyph-name="atilde" unicode="&#xe3;" horiz-adv-x="565" d="M592 491 L454 491 L446 445 C419 485 370 507 319 507 C178 507 75 378 54 248 C33 115 94 -16 238 -16 C289 -16 345 6 381 45 L383 45 L376 0 L514 0 L592 491 Z M290 108 C218 108 186 180 196 246 C206 312 262 383 334 383 C406 383 439 312 429 246 C419 180 362 108 290 108 L290 108 Z M271 604 C280 625 295 645 320 645 C339 645 360 634 383 623 C405 612 427 601 448 601 C523 601 570 678 592 742 L509 742 C494 720 483 700 455 700 C439 700 418 712 393 722 C370 732 344 743 320 743 C251 743 203 662 189 604 L271 604 Z " />
<glyph glyph-name="adieresis" unicode="&#xe4;" horiz-adv-x="565" d="M592 491 L454 491 L446 445 C419 485 370 507 319 507 C178 507 75 378 54 248 C33 115 94 -16 238 -16 C289 -16 345 6 381 45 L383 45 L376 0 L514 0 L592 491 Z M290 108 C218 108 186 180 196 246 C206 312 262 383 334 383 C406 383 439 312 429 246 C419 180 362 108 290 108 L290 108 Z M299 762 C255 762 213 726 206 682 C199 638 229 602 273 602 C317 602 359 638 366 682 C373 726 343 762 299 762 L299 762 Z M510 762 C466 762 424 726 417 682 C410 638 440 602 484 602 C528 602 570 638 577 682 C584 726 554 762 510 762 L510 762 Z " />
<glyph glyph-name="aring" unicode="&#xe5;" horiz-adv-x="565" d="M592 491 L454 491 L446 445 C419 485 370 507 319 507 C178 507 75 378 54 248 C33 115 94 -16 238 -16 C289 -16 345 6 381 45 L383 45 L376 0 L514 0 L592 491 Z M290 108 C218 108 186 180 196 246 C206 312 262 383 334 383 C406 383 439 312 429 246 C419 180 362 108 290 108 L290 108 Z M406 774 C351 774 298 729 290 674 C281 618 319 573 374 573 C429 573 481 618 490 674 C498 729 461 774 406 774 L406 774 Z M396 715 C419 715 434 696 431 674 C427 651 406 632 383 632 C360 632 345 651 349 674 C352 696 373 715 396 715 L396 715 Z " />
<glyph glyph-name="ae" unicode="&#xe6;" horiz-adv-x="792" d="M505 310 C520 361 559 409 615 409 C669 409 693 360 692 310 L505 310 Z M256 217 C295 217 342 197 335 151 C328 109 279 83 241 83 C200 83 161 104 169 150 C176 193 216 217 256 217 L256 217 Z M812 223 L815 240 C838 388 785 507 624 507 C560 507 492 482 445 432 C422 486 355 507 296 507 C250 507 202 498 156 487 L139 378 C179 392 221 400 262 400 C330 400 370 367 359 295 L356 279 C324 298 285 306 246 306 C149 306 51 252 34 145 C17 35 99 -16 198 -16 C264 -16 337 12 386 65 C414 8 478 -16 548 -16 C651 -16 746 39 796 137 L670 158 C645 119 611 91 565 91 C492 91 480 161 489 223 L812 223 Z " />
<glyph glyph-name="ccedilla" unicode="&#xe7;" horiz-adv-x="421" d="M459 476 C429 497 389 507 350 507 C202 507 77 390 54 244 C31 103 115 -16 260 -16 C303 -16 345 -7 386 14 L408 149 C378 121 340 102 302 102 C222 102 183 166 195 243 C207 315 264 389 343 389 C386 389 413 371 438 341 L459 476 Z M211 -20 L89 -168 L157 -206 L295 -67 L211 -20 Z " />
<glyph glyph-name="egrave" unicode="&#xe8;" horiz-adv-x="501" d="M521 223 L524 240 C547 388 494 507 333 507 C174 507 77 390 53 241 C30 92 105 -16 257 -16 C360 -16 455 39 505 137 L379 158 C354 119 320 91 274 91 C201 91 189 161 198 223 L521 223 Z M216 310 C231 361 270 409 326 409 C380 409 404 360 403 310 L216 310 Z M213 712 L340 562 L418 606 L325 774 L213 712 Z " />
<glyph glyph-name="eacute" unicode="&#xe9;" horiz-adv-x="501" d="M521 223 L524 240 C547 388 494 507 333 507 C174 507 77 390 53 241 C30 92 105 -16 257 -16 C360 -16 455 39 505 137 L379 158 C354 119 320 91 274 91 C201 91 189 161 198 223 L521 223 Z M216 310 C231 361 270 409 326 409 C380 409 404 360 403 310 L216 310 Z M423 774 L276 606 L340 562 L515 712 L423 774 Z " />
<glyph glyph-name="ecircumflex" unicode="&#xea;" horiz-adv-x="501" d="M521 223 L524 240 C547 388 494 507 333 507 C174 507 77 390 53 241 C30 92 105 -16 257 -16 C360 -16 455 39 505 137 L379 158 C354 119 320 91 274 91 C201 91 189 161 198 223 L521 223 Z M216 310 C231 361 270 409 326 409 C380 409 404 360 403 310 L216 310 Z M179 620 L229 554 L355 658 L449 554 L519 620 L374 774 L179 620 Z " />
<glyph glyph-name="edieresis" unicode="&#xeb;" horiz-adv-x="501" d="M521 223 L524 240 C547 388 494 507 333 507 C174 507 77 390 53 241 C30 92 105 -16 257 -16 C360 -16 455 39 505 137 L379 158 C354 119 320 91 274 91 C201 91 189 161 198 223 L521 223 Z M216 310 C231 361 270 409 326 409 C380 409 404 360 403 310 L216 310 Z M267 762 C223 762 181 726 174 682 C167 638 197 602 241 602 C285 602 327 638 334 682 C341 726 311 762 267 762 L267 762 Z M478 762 C434 762 392 726 385 682 C378 638 408 602 452 602 C496 602 538 638 545 682 C552 726 522 762 478 762 L478 762 Z " />
<glyph glyph-name="igrave" unicode="&#xec;" horiz-adv-x="253" d="M275 491 L135 491 L57 0 L197 0 L275 491 Z M103 712 L230 562 L308 606 L215 774 L103 712 Z " />
<glyph glyph-name="iacute" unicode="&#xed;" horiz-adv-x="253" d="M275 491 L135 491 L57 0 L197 0 L275 491 Z M283 774 L136 606 L200 562 L375 712 L283 774 Z " />
<glyph glyph-name="icircumflex" unicode="&#xee;" horiz-adv-x="253" d="M275 491 L135 491 L57 0 L197 0 L275 491 Z M55 620 L105 554 L231 658 L325 554 L395 620 L250 774 L55 620 Z " />
<glyph glyph-name="idieresis" unicode="&#xef;" horiz-adv-x="253" d="M275 491 L135 491 L57 0 L197 0 L275 491 Z M143 762 C99 762 57 726 50 682 C43 638 73 602 117 602 C161 602 203 638 210 682 C217 726 187 762 143 762 L143 762 Z M354 762 C310 762 268 726 261 682 C254 638 284 602 328 602 C372 602 414 638 421 682 C428 726 398 762 354 762 L354 762 Z " />
<glyph glyph-name="eth" unicode="&#xf0;" horiz-adv-x="548" d="M197 786 C229 758 253 734 283 700 L151 624 L201 563 L333 640 C378 581 398 540 415 488 C396 495 377 503 338 503 C205 503 80 403 55 246 C29 81 132 -16 271 -16 C372 -16 539 42 573 261 C610 491 510 627 450 708 L582 785 L532 845 L400 769 C369 804 336 837 308 861 L197 786 Z M335 383 C407 383 440 313 429 245 C418 179 363 108 291 108 C219 108 186 179 197 245 C208 313 263 383 335 383 L335 383 Z " />
<glyph glyph-name="ntilde" unicode="&#xf1;" horiz-adv-x="540" d="M268 491 L128 491 L50 0 L190 0 L228 243 C238 302 254 395 337 395 C416 395 401 319 391 260 L350 0 L490 0 L538 300 C556 414 532 507 400 507 C350 507 299 490 263 446 L261 446 L268 491 Z M258 604 C267 625 282 645 307 645 C326 645 347 634 370 623 C392 612 414 601 435 601 C510 601 557 678 579 742 L496 742 C481 720 470 700 442 700 C426 700 405 712 380 722 C357 732 331 743 307 743 C238 743 190 662 176 604 L258 604 Z " />
<glyph glyph-name="ograve" unicode="&#xf2;" horiz-adv-x="548" d="M354 507 C201 507 79 398 55 245 C31 93 117 -16 271 -16 C425 -16 547 93 571 245 C595 398 507 507 354 507 L354 507 Z M335 383 C407 383 440 313 429 245 C418 179 363 108 291 108 C219 108 186 179 197 245 C208 313 263 383 335 383 L335 383 Z M236 712 L363 562 L441 606 L348 774 L236 712 Z " />
<glyph glyph-name="oacute" unicode="&#xf3;" horiz-adv-x="548" d="M354 507 C201 507 79 398 55 245 C31 93 117 -16 271 -16 C425 -16 547 93 571 245 C595 398 507 507 354 507 L354 507 Z M335 383 C407 383 440 313 429 245 C418 179 363 108 291 108 C219 108 186 179 197 245 C208 313 263 383 335 383 L335 383 Z M446 774 L299 606 L363 562 L538 712 L446 774 Z " />
<glyph glyph-name="ocircumflex" unicode="&#xf4;" horiz-adv-x="548" d="M354 507 C201 507 79 398 55 245 C31 93 117 -16 271 -16 C425 -16 547 93 571 245 C595 398 507 507 354 507 L354 507 Z M335 383 C407 383 440 313 429 245 C418 179 363 108 291 108 C219 108 186 179 197 245 C208 313 263 383 335 383 L335 383 Z M202 620 L252 554 L378 658 L472 554 L542 620 L397 774 L202 620 Z " />
<glyph glyph-name="otilde" unicode="&#xf5;" horiz-adv-x="548" d="M354 507 C201 507 79 398 55 245 C31 93 117 -16 271 -16 C425 -16 547 93 571 245 C595 398 507 507 354 507 L354 507 Z M335 383 C407 383 440 313 429 245 C418 179 363 108 291 108 C219 108 186 179 197 245 C208 313 263 383 335 383 L335 383 Z M262 604 C271 625 286 645 311 645 C330 645 351 634 374 623 C396 612 418 601 439 601 C514 601 561 678 583 742 L500 742 C485 720 474 700 446 700 C430 700 409 712 384 722 C361 732 335 743 311 743 C242 743 194 662 180 604 L262 604 Z " />
<glyph glyph-name="odieresis" unicode="&#xf6;" horiz-adv-x="548" d="M354 507 C201 507 79 398 55 245 C31 93 117 -16 271 -16 C425 -16 547 93 571 245 C595 398 507 507 354 507 L354 507 Z M335 383 C407 383 440 313 429 245 C418 179 363 108 291 108 C219 108 186 179 197 245 C208 313 263 383 335 383 L335 383 Z M290 762 C246 762 204 726 197 682 C190 638 220 602 264 602 C308 602 350 638 357 682 C364 726 334 762 290 762 L290 762 Z M501 762 C457 762 415 726 408 682 C401 638 431 602 475 602 C519 602 561 638 568 682 C575 726 545 762 501 762 L501 762 Z " />
<glyph glyph-name="divide" unicode="&#xf7;" horiz-adv-x="578" d="M312 146 C266 146 223 108 216 63 C209 17 240 -20 286 -20 C332 -20 375 17 382 63 C389 108 358 146 312 146 L312 146 Z M373 532 C327 532 284 494 277 449 C270 403 301 366 347 366 C393 366 436 403 443 449 C450 494 419 532 373 532 L373 532 Z M64 197 L576 197 L595 315 L83 315 L64 197 Z " />
<glyph glyph-name="oslash" unicode="&#xf8;" horiz-adv-x="564" d="M201 181 C195 201 193 223 197 245 C208 313 263 383 335 383 C364 383 386 372 403 353 L201 181 Z M429 295 C431 279 431 262 429 245 C418 179 363 108 291 108 C267 108 247 116 233 128 L429 295 Z M-4 10 L43 -41 L126 30 C161 1 211 -16 271 -16 C425 -16 547 93 571 245 C580 302 573 354 553 396 L645 476 L598 526 L512 452 C474 487 420 507 354 507 C201 507 79 398 55 245 C45 181 54 125 80 82 L-4 10 Z " />
<glyph glyph-name="ugrave" unicode="&#xf9;" horiz-adv-x="535" d="M125 491 L79 202 C56 59 118 -16 264 -16 C410 -16 496 59 519 202 L565 491 L425 491 L383 225 C374 169 354 102 283 102 C212 102 214 169 223 225 L265 491 L125 491 Z M230 712 L357 562 L435 606 L342 774 L230 712 Z " />
<glyph glyph-name="uacute" unicode="&#xfa;" horiz-adv-x="535" d="M125 491 L79 202 C56 59 118 -16 264 -16 C410 -16 496 59 519 202 L565 491 L425 491 L383 225 C374 169 354 102 283 102 C212 102 214 169 223 225 L265 491 L125 491 Z M440 774 L293 606 L357 562 L532 712 L440 774 Z " />
<glyph glyph-name="ucircumflex" unicode="&#xfb;" horiz-adv-x="535" d="M125 491 L79 202 C56 59 118 -16 264 -16 C410 -16 496 59 519 202 L565 491 L425 491 L383 225 C374 169 354 102 283 102 C212 102 214 169 223 225 L265 491 L125 491 Z M196 620 L246 554 L372 658 L466 554 L536 620 L391 774 L196 620 Z " />
<glyph glyph-name="udieresis" unicode="&#xfc;" horiz-adv-x="535" d="M125 491 L79 202 C56 59 118 -16 264 -16 C410 -16 496 59 519 202 L565 491 L425 491 L383 225 C374 169 354 102 283 102 C212 102 214 169 223 225 L265 491 L125 491 Z M284 762 C240 762 198 726 191 682 C184 638 214 602 258 602 C302 602 344 638 351 682 C358 726 328 762 284 762 L284 762 Z M495 762 C451 762 409 726 402 682 C395 638 425 602 469 602 C513 602 555 638 562 682 C569 726 539 762 495 762 L495 762 Z " />
<glyph glyph-name="yacute" unicode="&#xfd;" horiz-adv-x="520" d="M203 75 L-12 -262 L142 -262 L618 491 L462 491 L292 212 L219 491 L60 491 L203 75 Z M447 774 L300 606 L364 562 L539 712 L447 774 Z " />
<glyph glyph-name="thorn" unicode="&#xfe;" horiz-adv-x="565" d="M324 848 L184 848 L9 -262 L149 -262 L197 46 L199 46 C221 6 270 -16 320 -16 C465 -16 568 114 589 248 C610 377 545 507 406 507 C354 507 299 484 261 446 L324 848 Z M309 108 C237 108 205 180 215 246 C225 312 281 383 353 383 C425 383 457 312 447 246 C437 180 381 108 309 108 L309 108 Z " />
<glyph glyph-name="ydieresis" unicode="&#xff;" horiz-adv-x="520" d="M203 75 L-12 -262 L142 -262 L618 491 L462 491 L292 212 L219 491 L60 491 L203 75 Z M284 762 C240 762 198 726 191 682 C184 638 214 602 258 602 C302 602 344 638 351 682 C358 726 328 762 284 762 L284 762 Z M495 762 C451 762 409 726 402 682 C395 638 425 602 469 602 C513 602 555 638 562 682 C569 726 539 762 495 762 L495 762 Z " />
<glyph glyph-name="dotlessi" unicode="&#x131;" horiz-adv-x="253" d="M275 491 L135 491 L57 0 L197 0 L275 491 Z " />
<glyph glyph-name="Lslash" unicode="&#x141;" horiz-adv-x="434" d="M54 254 L134 303 L86 0 L441 0 L461 128 L253 128 L296 399 L414 471 L434 597 L316 524 L352 754 L205 754 L154 428 L74 378 L54 254 Z " />
<glyph glyph-name="lslash" unicode="&#x142;" horiz-adv-x="283" d="M72 0 L212 0 L285 463 L366 512 L383 618 L302 569 L346 848 L206 848 L148 480 L66 430 L49 324 L131 374 L72 0 Z " />
<glyph glyph-name="OE" unicode="&#x152;" horiz-adv-x="1039" d="M856 626 L1094 626 L1114 754 L730 754 L717 669 L715 669 C672 737 591 774 503 774 C291 774 109 577 77 375 C46 178 168 -20 377 -20 C468 -20 554 16 624 85 L611 0 L995 0 L1015 128 L777 128 L809 331 L1036 331 L1057 459 L830 459 L856 626 Z M477 629 C612 629 677 501 657 375 C638 252 532 125 397 125 C263 125 198 252 217 375 C237 501 343 629 477 629 L477 629 Z " />
<glyph glyph-name="oe" unicode="&#x153;" horiz-adv-x="873" d="M584 310 C599 361 638 409 694 409 C748 409 772 360 771 310 L584 310 Z M333 383 C405 383 438 313 427 245 C416 179 361 108 289 108 C217 108 184 179 195 245 C206 313 261 383 333 383 L333 383 Z M894 223 L897 240 C920 388 867 507 706 507 C637 507 568 482 518 425 C479 480 419 507 352 507 C199 507 77 398 53 245 C29 93 115 -16 269 -16 C337 -16 409 10 462 69 C493 9 554 -16 630 -16 C733 -16 828 39 878 137 L752 158 C727 119 693 91 647 91 C574 91 562 161 571 223 L894 223 Z " />
<glyph glyph-name="Scaron" unicode="&#x160;" horiz-adv-x="526" d="M587 690 C549 741 462 774 395 774 C268 774 159 673 139 548 C120 431 184 382 274 342 C330 319 398 297 386 219 C377 161 331 110 271 110 C208 110 164 162 153 220 L43 127 C81 40 148 -20 252 -20 C406 -20 517 87 541 238 C581 491 273 438 293 565 C301 614 352 650 399 650 C448 650 480 626 502 588 L587 690 Z M247 937 L401 782 L604 937 L555 1002 L419 898 L318 1002 L247 937 Z " />
<glyph glyph-name="scaron" unicode="&#x161;" horiz-adv-x="410" d="M434 456 C400 491 336 507 284 507 C192 507 118 440 103 348 C91 269 135 240 181 219 C226 198 274 188 267 145 C262 113 234 92 203 92 C162 92 130 119 108 149 L30 66 C65 14 124 -16 190 -16 C293 -16 392 49 409 158 C422 243 378 277 330 299 C284 321 234 331 240 367 C244 391 270 409 293 409 C321 409 344 394 361 375 L434 456 Z M138 709 L292 554 L495 709 L446 774 L310 670 L209 774 L138 709 Z " />
<glyph glyph-name="Ydieresis" unicode="&#x178;" horiz-adv-x="587" d="M273 346 L218 0 L365 0 L420 346 L722 754 L550 754 L365 492 L274 754 L103 754 L273 346 Z M346 990 C302 990 260 954 253 910 C246 866 276 830 320 830 C364 830 406 866 413 910 C420 954 390 990 346 990 L346 990 Z M557 990 C513 990 471 954 464 910 C457 866 487 830 531 830 C575 830 617 866 624 910 C631 954 601 990 557 990 L557 990 Z " />
<glyph glyph-name="Zcaron" unicode="&#x17d;" horiz-adv-x="575" d="M259 128 L689 754 L175 754 L155 626 L436 626 L5 0 L552 0 L572 128 L259 128 Z M272 937 L426 782 L629 937 L580 1002 L444 898 L343 1002 L272 937 Z " />
<glyph glyph-name="zcaron" unicode="&#x17e;" horiz-adv-x="481" d="M251 118 L559 491 L116 491 L97 373 L309 373 L-1 0 L465 0 L484 118 L251 118 Z M182 709 L336 554 L539 709 L490 774 L354 670 L253 774 L182 709 Z " />
<glyph glyph-name="florin" unicode="&#x192;" horiz-adv-x="578" d="M461 504 L488 587 C502 630 524 706 583 706 C605 706 622 700 639 689 L678 810 C654 825 625 831 594 831 C459 831 396 738 357 619 L320 504 L258 504 L236 432 L296 432 L211 162 C198 122 173 45 149 11 C121 -28 86 -38 43 -38 L10 -36 L-30 -162 L26 -166 C230 -166 290 -31 345 141 L438 432 L546 432 L568 504 L461 504 Z " />
<glyph glyph-name="circumflex" unicode="&#x2c6;" horiz-adv-x="400" d="M128 620 L178 554 L304 658 L398 554 L468 620 L323 774 L128 620 Z " />
<glyph glyph-name="caron" unicode="&#x2c7;" horiz-adv-x="400" d="M133 709 L287 554 L490 709 L441 774 L305 670 L204 774 L133 709 Z " />
<glyph glyph-name="uni02C9" unicode="&#x2c9;" horiz-adv-x="400" d="M128 754 L114 666 L496 666 L510 754 L128 754 Z " />
<glyph glyph-name="breve" unicode="&#x2d8;" horiz-adv-x="400" d="M146 754 C141 661 202 598 295 598 C388 598 469 661 492 754 L394 754 C379 714 352 683 308 683 C286 683 271 691 261 704 C250 716 246 734 244 754 L146 754 Z " />
<glyph glyph-name="dotaccent" unicode="&#x2d9;" horiz-adv-x="380" d="M311 762 C267 762 225 726 218 682 C211 638 241 602 285 602 C329 602 371 638 378 682 C385 726 355 762 311 762 L311 762 Z " />
<glyph glyph-name="ring" unicode="&#x2da;" horiz-adv-x="380" d="M313 774 C258 774 205 729 197 674 C188 618 226 573 281 573 C336 573 388 618 397 674 C405 729 368 774 313 774 L313 774 Z M303 715 C326 715 341 696 338 674 C334 651 313 632 290 632 C267 632 252 651 256 674 C259 696 280 715 303 715 L303 715 Z " />
<glyph glyph-name="ogonek" unicode="&#x2db;" horiz-adv-x="380" d="M170 -20 C127 -46 85 -89 77 -139 C68 -193 111 -225 162 -225 C184 -225 213 -220 234 -207 L260 -132 C244 -142 228 -148 210 -148 C184 -148 169 -127 173 -102 C178 -68 211 -39 240 -22 L240 -20 L170 -20 Z " />
<glyph glyph-name="tilde" unicode="&#x2dc;" horiz-adv-x="400" d="M188 604 C197 625 212 645 237 645 C256 645 277 634 300 623 C322 612 344 601 365 601 C440 601 487 678 509 742 L426 742 C411 720 400 700 372 700 C356 700 335 712 310 722 C287 732 261 743 237 743 C168 743 120 662 106 604 L188 604 Z " />
<glyph glyph-name="hungarumlaut" unicode="&#x2dd;" horiz-adv-x="420" d="M248 774 L101 606 L165 562 L340 712 L248 774 Z M437 774 L290 606 L354 562 L529 712 L437 774 Z " />
<glyph glyph-name="uni03A9" unicode="&#x3a9;" horiz-adv-x="729" d="M197 108 L56 108 L39 0 L309 0 L322 79 C265 121 223 237 248 397 C272 552 361 665 471 665 C587 665 626 538 606 402 C578 227 500 123 431 79 L418 0 L688 0 L705 108 L563 108 L564 111 C638 174 719 289 741 432 C767 594 691 777 491 777 C304 777 152 618 121 424 C99 284 144 176 198 111 L197 108 Z " />
<glyph glyph-name="uni03BC" unicode="&#x3bc;" horiz-adv-x="535" d="M125 491 L6 -262 L146 -262 L189 14 C208 0 225 -16 264 -16 C410 -16 496 59 519 202 L565 491 L425 491 L383 225 C374 169 354 102 283 102 C212 102 214 169 223 225 L265 491 L125 491 Z " />
<glyph glyph-name="pi" unicode="&#x3c0;" horiz-adv-x="625" d="M673 461 L701 575 L266 575 C178 575 121 560 91 539 L92 451 C115 457 144 461 196 461 C174 340 114 130 57 0 L182 0 C239 118 299 343 324 461 L469 461 L420 154 C408 77 406 23 414 0 L540 0 C537 34 539 79 551 159 L599 461 L673 461 Z " />
<glyph glyph-name="endash" unicode="&#x2013;" horiz-adv-x="500" d="M60 378 L42 263 L542 263 L560 378 L60 378 Z " />
<glyph glyph-name="emdash" unicode="&#x2014;" horiz-adv-x="1000" d="M190 378 L172 263 L912 263 L930 378 L190 378 Z " />
<glyph glyph-name="quoteleft" unicode="&#x2018;" horiz-adv-x="296" d="M232 459 L388 763 L297 774 L105 473 L232 459 Z " />
<glyph glyph-name="quoteright" unicode="&#x2019;" horiz-adv-x="296" d="M262 774 L104 470 L196 459 L387 759 L262 774 Z " />
<glyph glyph-name="quotesinglbase" unicode="&#x201a;" horiz-adv-x="296" d="M164 156 L7 -148 L98 -159 L289 142 L164 156 Z " />
<glyph glyph-name="quotedblleft" unicode="&#x201c;" horiz-adv-x="488" d="M423 459 L579 763 L488 774 L296 473 L423 459 Z M232 459 L388 763 L297 774 L105 473 L232 459 Z " />
<glyph glyph-name="quotedblright" unicode="&#x201d;" horiz-adv-x="488" d="M262 774 L104 470 L196 459 L387 759 L262 774 Z M453 774 L295 470 L387 459 L578 759 L453 774 Z " />
<glyph glyph-name="quotedblbase" unicode="&#x201e;" horiz-adv-x="488" d="M164 156 L7 -148 L98 -159 L289 142 L164 156 Z M355 156 L198 -148 L289 -159 L480 142 L355 156 Z " />
<glyph glyph-name="dagger" unicode="&#x2020;" horiz-adv-x="577" d="M357 848 L319 608 L157 608 L139 492 L301 492 L208 -97 L339 -97 L432 492 L594 492 L612 608 L450 608 L488 848 L357 848 Z " />
<glyph glyph-name="daggerdbl" unicode="&#x2021;" horiz-adv-x="577" d="M357 848 L324 637 L162 637 L144 521 L306 521 L284 388 L122 388 L104 272 L266 272 L208 -96 L339 -96 L397 272 L559 272 L577 388 L415 388 L437 521 L599 521 L617 637 L455 637 L488 848 L357 848 Z " />
<glyph glyph-name="bullet" unicode="&#x2022;" horiz-adv-x="577" d="M318 189 C421 189 520 272 537 377 C553 482 483 566 378 566 C273 566 175 482 160 377 C143 272 215 189 318 189 L318 189 Z " />
<glyph glyph-name="ellipsis" unicode="&#x2026;" horiz-adv-x="1000" d="M193 161 C144 161 97 122 90 73 C82 24 115 -17 164 -17 C213 -17 260 24 268 73 C275 122 242 161 193 161 L193 161 Z M525 158 C476 158 430 119 422 70 C414 21 448 -20 497 -20 C546 -20 592 21 600 70 C608 119 574 158 525 158 L525 158 Z M858 158 C809 158 763 119 755 70 C747 21 781 -20 830 -20 C879 -20 925 21 933 70 C941 119 907 158 858 158 L858 158 Z " />
<glyph glyph-name="perthousand" unicode="&#x2030;" horiz-adv-x="1200" d="M325 774 C223 774 134 699 117 595 C101 492 165 417 268 417 C371 417 459 492 475 595 C492 699 427 774 325 774 L325 774 Z M312 693 C362 693 384 641 376 595 C369 549 331 498 281 498 C231 498 209 549 216 595 C224 641 262 693 312 693 L312 693 Z M657 337 C555 337 466 262 450 158 C434 55 498 -20 601 -20 C704 -20 792 55 808 158 C824 262 759 337 657 337 L657 337 Z M645 256 C695 256 716 204 709 158 C702 112 664 61 614 61 C564 61 542 112 549 158 C556 204 595 256 645 256 L645 256 Z M1052 337 C950 337 861 262 845 158 C829 55 893 -20 996 -20 C1099 -20 1187 55 1203 158 C1219 262 1154 337 1052 337 L1052 337 Z M1040 256 C1090 256 1111 204 1104 158 C1097 112 1059 61 1009 61 C959 61 937 112 944 158 C951 204 990 256 1040 256 L1040 256 Z M694 780 L166 4 L229 -31 L756 746 L694 780 Z " />
<glyph glyph-name="guilsinglleft" unicode="&#x2039;" horiz-adv-x="314" d="M190 320 L343 507 L266 563 L69 320 L190 80 L286 138 L190 320 Z " />
<glyph glyph-name="guilsinglright" unicode="&#x203a;" horiz-adv-x="314" d="M72 138 L150 80 L347 320 L226 563 L131 507 L226 320 L72 138 Z " />
<glyph glyph-name="fraction" unicode="&#x2044;" horiz-adv-x="179" d="M381 780 L-147 4 L-84 -31 L443 746 L381 780 Z " />
<glyph glyph-name="Euro" unicode="&#x20ac;" horiz-adv-x="578" d="M650 737 C629 752 573 773 496 773 C337 773 237 676 185 513 L134 513 L85 411 L160 411 C158 402 155 392 153 381 C151 367 150 355 150 346 L108 346 L59 244 L145 244 C143 60 227 -19 371 -19 C456 -19 513 0 535 13 L556 146 C527 123 480 103 411 103 C324 103 281 149 282 244 L448 244 L498 346 L286 346 C286 355 288 369 290 381 C292 392 294 402 296 411 L531 411 L581 513 L324 513 C353 605 409 649 497 649 C568 649 608 628 629 607 L650 737 Z " />
<glyph glyph-name="afii61289" unicode="&#x2113;" horiz-adv-x="532" d="M491 187 C454 139 400 89 344 89 C291 89 258 130 270 215 L278 265 C422 391 521 515 541 644 C558 751 527 836 428 836 C328 836 229 754 199 562 L155 282 C124 255 93 233 57 206 L77 135 C99 150 120 167 140 180 C140 176 139 172 138 167 C131 70 168 -16 297 -16 C379 -16 464 24 534 132 L491 187 Z M325 559 C347 700 387 740 419 740 C461 740 472 706 463 649 C450 569 383 474 297 387 L325 559 Z " />
<glyph glyph-name="trademark" unicode="&#x2122;" horiz-adv-x="1000" d="M501 754 L161 754 L150 679 L277 679 L222 333 L308 333 L363 679 L490 679 L501 754 Z M1077 754 L929 754 L784 479 L782 479 L727 754 L578 754 L512 333 L598 333 L651 668 L653 668 L718 333 L801 333 L976 668 L978 668 L925 333 L1011 333 L1077 754 Z " />
<glyph glyph-name="Omega" unicode="&#x2126;" horiz-adv-x="729" d="M197 108 L56 108 L39 0 L309 0 L322 79 C265 121 223 237 248 397 C272 552 361 665 471 665 C587 665 626 538 606 402 C578 227 500 123 431 79 L418 0 L688 0 L705 108 L563 108 L564 111 C638 174 719 289 741 432 C767 594 691 777 491 777 C304 777 152 618 121 424 C99 284 144 176 198 111 L197 108 Z " />
<glyph glyph-name="estimated" unicode="&#x212e;" horiz-adv-x="1080" d="M1042 366 L1042 376 C1042 596 845 773 600 773 C357 773 160 596 160 376 C160 158 357 -19 600 -19 C743 -19 871 42 949 135 L886 135 C817 55 716 3 602 3 C496 3 401 49 331 120 C326 127 322 136 322 145 L322 361 C322 365 324 366 328 366 L1042 366 Z M880 394 C880 392 879 387 875 387 L328 387 C324 387 322 392 322 394 L322 607 C322 617 326 627 333 634 C402 704 497 750 602 750 C706 750 800 705 869 637 C876 630 880 621 880 611 L880 394 Z " />
<glyph glyph-name="partialdiff" unicode="&#x2202;" horiz-adv-x="598" d="M219 696 C251 720 300 748 363 748 C468 748 519 623 497 484 C495 475 492 456 490 447 L489 447 C477 474 434 531 351 531 C228 531 108 421 79 243 C60 122 109 -15 254 -15 C439 -15 573 166 617 442 C662 723 547 858 397 858 C302 858 236 822 199 796 L219 696 Z M283 96 C223 96 194 158 207 238 C222 335 287 424 359 424 C423 424 455 369 460 334 C432 222 363 96 284 96 L283 96 Z " />
<glyph glyph-name="Delta" unicode="&#x2206;" horiz-adv-x="681" d="M29 0 L652 0 L665 81 L545 782 L391 782 L41 78 L29 0 Z M178 107 L354 448 C380 510 423 591 438 631 L441 631 C444 583 462 492 468 432 L531 107 L178 107 Z " />
<glyph glyph-name="product" unicode="&#x220f;" horiz-adv-x="874" d="M847 643 L847 765 L149 765 L149 643 L253 643 L253 -106 L384 -106 L384 643 L611 643 L611 -106 L742 -106 L742 643 L847 643 Z " />
<glyph glyph-name="summation" unicode="&#x2211;" horiz-adv-x="701" d="M682 -106 L682 19 L306 19 L306 23 L547 354 L330 649 L330 652 L665 652 L665 765 L156 765 L156 671 L399 331 L147 -18 L147 -106 L682 -106 Z " />
<glyph glyph-name="minus" unicode="&#x2212;" horiz-adv-x="578" d="M64 197 L576 197 L595 315 L83 315 L64 197 Z " />
<glyph glyph-name="uni2215" unicode="&#x2215;" horiz-adv-x="179" d="M381 780 L-147 4 L-84 -31 L443 746 L381 780 Z " />
<glyph glyph-name="uni2219" unicode="&#x2219;" horiz-adv-x="289" d="M200 345 C151 345 104 306 97 257 C89 208 122 167 171 167 C220 167 267 208 275 257 C282 306 249 345 200 345 L200 345 Z " />
<glyph glyph-name="radical" unicode="&#x221a;" horiz-adv-x="743" d="M750 919 L659 919 L481 106 C474 67 468 26 465 3 L463 4 C458 28 450 65 443 100 L336 445 L157 374 L179 298 L257 328 L411 -152 L516 -152 L750 919 Z " />
<glyph glyph-name="infinity" unicode="&#x221e;" horiz-adv-x="907" d="M856 317 C856 423 784 493 691 493 C596 493 542 425 498 374 C442 445 385 493 306 493 C205 493 129 418 129 311 C129 204 209 131 297 131 C383 131 439 184 494 252 C565 159 623 131 685 131 C772 131 856 200 856 316 L856 317 Z M306 204 C248 204 205 252 205 309 C205 373 241 422 303 422 C372 422 410 366 454 307 C413 258 368 204 308 204 L306 204 Z M684 422 C742 422 781 375 781 310 C781 263 747 204 687 204 C633 204 599 234 535 314 C569 353 617 422 682 422 L684 422 Z " />
<glyph glyph-name="integral" unicode="&#x222b;" horiz-adv-x="544" d="M518 933 C505 939 480 946 453 946 C408 946 360 930 330 896 C285 847 267 777 267 650 C267 463 283 306 283 107 C283 8 272 -38 254 -64 C243 -80 225 -86 209 -86 C189 -86 174 -79 164 -75 L147 -171 C162 -179 193 -188 227 -188 C279 -188 334 -167 362 -111 C386 -67 401 4 401 109 C401 305 386 459 386 637 C386 730 392 792 415 822 C428 842 447 850 467 850 C481 850 494 846 504 841 L518 933 Z " />
<glyph glyph-name="approxequal" unicode="&#x2248;" horiz-adv-x="653" d="M565 489 C538 443 513 412 472 412 C441 412 418 428 381 450 C355 465 321 490 270 490 C205 490 149 443 118 380 L166 338 C191 376 216 415 263 415 C297 415 322 399 353 379 C401 349 429 336 471 336 C531 336 581 383 612 447 L565 489 Z M565 291 C537 245 513 214 472 214 C439 214 415 233 381 253 C355 268 321 292 270 292 C205 292 149 245 118 182 L166 139 C191 178 216 217 263 217 C296 217 321 201 353 180 C400 152 429 138 470 138 C532 138 581 186 612 249 L565 291 Z " />
<glyph glyph-name="notequal" unicode="&#x2260;" horiz-adv-x="668" d="M516 555 L455 579 L404 461 L143 461 L143 383 L376 383 L314 238 L143 238 L143 161 L285 161 L243 65 L303 41 L355 161 L617 161 L617 238 L384 238 L446 383 L617 383 L617 461 L475 461 L516 555 Z " />
<glyph glyph-name="lessequal" unicode="&#x2264;" horiz-adv-x="683" d="M629 108 L629 200 L239 389 L239 392 L629 580 L629 672 L163 432 L163 348 L629 108 Z M634 -11 L634 68 L159 68 L159 -11 L634 -11 Z " />
<glyph glyph-name="greaterequal" unicode="&#x2265;" horiz-adv-x="683" d="M165 672 L165 580 L555 392 L555 389 L166 200 L166 108 L631 348 L631 432 L165 672 Z M632 -11 L632 68 L160 68 L160 -11 L632 -11 Z " />
<glyph glyph-name="lozenge" unicode="&#x25ca;" horiz-adv-x="742" d="M690 382 L489 817 L383 817 L176 382 L377 -52 L483 -52 L690 382 Z M573 379 L453 119 C448 107 438 73 435 57 L430 57 C427 72 420 99 412 121 L293 385 L412 639 C420 661 428 686 432 707 L436 707 C440 687 448 660 456 639 L573 379 Z " />
<glyph glyph-name="fi" unicode="&#xfb01;" horiz-adv-x="544" d="M254 373 L366 373 L385 491 L273 491 L292 615 C299 655 305 736 367 736 C388 736 404 728 421 719 L441 844 C421 855 399 860 376 860 C241 860 175 755 156 635 L133 491 L86 491 L67 373 L114 373 L55 0 L195 0 L254 373 Z M565 491 L425 491 L347 0 L487 0 L565 491 Z M541 780 C495 780 452 742 444 697 C437 651 468 614 514 614 C560 614 603 651 610 697 C618 742 587 780 541 780 L541 780 Z " />
<glyph glyph-name="fl" unicode="&#xfb02;" horiz-adv-x="543" d="M627 848 L487 848 L353 0 L493 0 L627 848 Z M254 373 L366 373 L385 491 L273 491 L292 615 C299 655 305 736 367 736 C388 736 404 728 421 719 L441 844 C421 855 399 860 376 860 C241 860 175 755 156 635 L133 491 L86 491 L67 373 L114 373 L55 0 L195 0 L254 373 Z " />
</font>
</svg>
