<svg xmlns="http://www.w3.org/2000/svg">
  <symbol id="facebook" viewBox="0 0 48 48"><title>Contact Facebook</title><path d="M24 46c12.2 0 22-9.8 22-22S36.2 2 24 2 2 11.8 2 24s9.8 22 22 22zm1-8V25.2h4.2l.6-5H25v-3c0-1.6.5-2.6 2.5-2.6H30v-4.4l-3.7-.2c-3.7 0-6.2 2.3-6.2 6.6v3.7h-4v5h4V38h5z" fill-rule="evenodd"/></symbol>
  <symbol id="phone" viewBox="0 0 48 48"><title>Contact Phone</title><path d="M24 46c12.2 0 22-9.8 22-22S36.2 2 24 2 2 11.8 2 24s9.8 22 22 22zm-7-36l-7 .5c0 7.4 1 13.7 7.6 20.3 6.6 6.6 12.5 7.3 20 7.2l.4-7-7-1c-2 1.8-3.8 3.7-3.8 3.7s-3.7-1.5-7.4-5.2c-3.6-3.6-5.5-7.7-5.5-7.7L18 17l-1-7z" fill-rule="evenodd"/></symbol>
  <symbol id="mail" viewBox="0 0 48 48"><title>Contact Mail</title><path d="M24 46c12.2 0 22-9.8 22-22S36.2 2 24 2 2 11.8 2 24s9.8 22 22 22zM12 16c0-1 1-2 2-2h20c1 0 2 1 2 2v16c0 1-1 2-2 2H14c-1 0-2-1-2-2V16zm2.7-.6l-1.4 1.4L24 27.4l10.7-10.7-1.4-1.4-9.3 9.3-9.3-9.2z" fill-rule="evenodd"/></symbol>
  <symbol id="search" viewBox="0 0 48 48"><title>Search</title><path d="M30.5 33c-2.7 1.8-6 3-9.5 3-8.8 0-16-7.2-16-16S12.2 4 21 4s16 7.2 16 16c0 3.5-1.2 6.8-3 9.5L44.3 40 41 43.4 30.5 33zm-9.5-.2c7 0 12.8-5.7 12.8-12.8C33.8 13 28 7.2 21 7.2 14 7.2 8.2 13 8.2 20c0 7 5.7 12.8 12.8 12.8z" fill-rule="evenodd"/></symbol>
  <symbol id="arrowLeftLarge" viewBox="0 0 48 48"><path d="M14.8 22l5.2-6h-6l-7 8 7 8h6l-5.2-6H42v-4H14.7z" fill-rule="evenodd"/></symbol>
  <symbol id="arrowRightLarge" viewBox="0 0 48 48"><path d="M34.3 26L29 32h6l7-8-7-8h-6l5.3 6H7v4h27.3z" fill-rule="evenodd"/></symbol>
  <symbol id="arrowLeftShort" viewBox="0 0 48 48"><path d="M19.8 21l5.2-9h-6l-7 12 7 12h6l-5.2-9H38v-6H19.7z" fill-rule="evenodd"/></symbol>
  <symbol id="arrowRightShort" viewBox="0 0 48 48"><path d="M31.3 27L26 36h6l7-12-7-12h-6l5.3 9H13v6h18.3z" fill-rule="evenodd"/></symbol>
  <symbol id="chevronLeft" viewBox="0 0 48 48"><path d="M30 40h-6l-7-16 7-16h6l-7 16" fill-rule="evenodd"/></symbol>
  <symbol id="chevronRight" viewBox="0 0 48 48"><path d="M19 8h6l7 16-7 16h-6l7-16" fill-rule="evenodd"/></symbol>
  <symbol id="grid" viewBox="0 0 48 48"><path d="M8 8h8v8H8V8zm0 12h8v8H8v-8zm12 0h8v8h-8v-8zm12 0h8v8h-8v-8zm0 12h8v8h-8v-8zm-12 0h8v8h-8v-8zM8 32h8v8H8v-8zM20 8h8v8h-8V8zm12 0h8v8h-8V8z"/></symbol>
  <symbol id="list" viewBox="0 0 48 48"><path d="M18 8h22v8H18V8zM8 8h6v8H8V8zm0 12h6v8H8v-8zm0 12h6v8H8v-8zm10-12h22v8H18v-8zm0 12h22v8H18v-8z"/></symbol>
</svg>
