<svg xmlns="http://www.w3.org/2000/svg">
  <symbol id="arrowPrev" viewBox="0 0 48 48" role="img" aria-labelledby="arrowPrevTitle"><title id="arrowPrevTitle">Précédent</title><path d="M17.7 26.5l6 7.5h-6.5L9 24l8.2-10h6.6l-6 7.5H39v5" fill-rule="evenodd"/></symbol>
  <symbol id="arrowNext" viewBox="0 0 48 48" role="img" aria-labelledby="arrowNextTitle"><title id="arrowNextTitle">Suivant</title><path d="M30.3 21.5l-6-7.5h6.5L39 24l-8.2 10h-6.6l6-7.5H9v-5" fill-rule="evenodd"/></symbol>
  <symbol id="arrowRight" viewBox="0 0 48 48" role="img" arialabelledby="arrowRightTitle"><title id="arrowRightTitle">Suite</title><path d="M26.2 26L19 35h6.2L34 24l-8.8-11H19l7.2 9H13v4h13.2z" fill-rule="evenodd"/></symbol>
  <symbol id="facebook" viewBox="0 0 48 48" role="img" arialabelledby="facebookTitle"><title id="facebookTitle">Contact Facebook</title><path d="M24 46c12.2 0 22-9.8 22-22S36.2 2 24 2 2 11.8 2 24s9.8 22 22 22zm1-8V25.2h4.2l.6-5H25v-3c0-1.6.5-2.6 2.5-2.6H30v-4.4l-3.7-.2c-3.7 0-6.2 2.3-6.2 6.6v3.7h-4v5h4V38h5z" fill-rule="evenodd"/></symbol>
  <symbol id="phone" viewBox="0 0 48 48" role="img" arialabelledby="phoneTitle"><title id="phoneTitle">Contact Phone</title><path d="M24 46c12.2 0 22-9.8 22-22S36.2 2 24 2 2 11.8 2 24s9.8 22 22 22zm-7-36l-7 .5c0 7.4 1 13.7 7.6 20.3 6.6 6.6 12.5 7.3 20 7.2l.4-7-7-1c-2 1.8-3.8 3.7-3.8 3.7s-3.7-1.5-7.4-5.2c-3.6-3.6-5.5-7.7-5.5-7.7L18 17l-1-7z" fill-rule="evenodd"/></symbol>
  <symbol id="mail" viewBox="0 0 48 48" role="img" arialabelledby="mailTitle"><title id="mailTitle">Contact Mail</title><path d="M24 46c12.2 0 22-9.8 22-22S36.2 2 24 2 2 11.8 2 24s9.8 22 22 22zM12 16c0-1 1-2 2-2h20c1 0 2 1 2 2v16c0 1-1 2-2 2H14c-1 0-2-1-2-2V16zm2.7-.6l-1.4 1.4L24 27.4l10.7-10.7-1.4-1.4-9.3 9.3-9.3-9.2z" fill-rule="evenodd"/></symbol>
  <symbol id="search" viewBox="0 0 48 48" role="img" arialabelledby="searchTitle"><title id="searchTitle">Search</title><path d="M30.5 33c-2.7 1.8-6 3-9.5 3-8.8 0-16-7.2-16-16S12.2 4 21 4s16 7.2 16 16c0 3.5-1.2 6.8-3 9.5L44.3 40 41 43.4 30.5 33zm-9.5-.2c7 0 12.8-5.7 12.8-12.8C33.8 13 28 7.2 21 7.2 14 7.2 8.2 13 8.2 20c0 7 5.7 12.8 12.8 12.8z" fill-rule="evenodd"/></symbol>
</svg>
